<?xml version="1.0" encoding="UTF-8"?>
<svg xmlns="http://www.w3.org/2000/svg" id="icons" viewBox="0 0 60 60" width="512" height="512"><path d="M33.346,53.47a.5.5,0,0,1-.269-.922l.2-.127-1.7.981a.5.5,0,0,1-.527-.848l8.883-5.932L28.188,53.4a.5.5,0,0,1-.52-.853l6.674-4.273L25.462,53.4a.5.5,0,0,1-.522-.852l10.9-7.035L22.172,53.4a.5.5,0,0,1-.513-.858l2.125-1.312L20.025,53.4a.5.5,0,0,1-.517-.855l12.051-7.615L16.887,53.4a.5.5,0,0,1-.518-.855L31.7,42.852,13.428,53.4a.5.5,0,0,1-.513-.858L23.043,46.3,11.72,52.84a.5.5,0,0,1-.514-.858l15.5-9.638L10.539,51.679a.5.5,0,0,1-.514-.858l16.092-9.989L9.364,50.5a.5.5,0,0,1-.512-.858l15.772-9.754-16.4,9.469A.5.5,0,0,1,7.71,48.5l11.171-6.83L7.437,48.278a.5.5,0,0,1-.514-.857L25.378,35.986,7.28,46.435a.5.5,0,0,1-.515-.857L29.676,31.2,7.28,44.132a.5.5,0,0,1-.513-.858L25.14,31.9,7.28,42.208a.5.5,0,0,1-.509-.86l2.7-1.629L7.28,40.981a.5.5,0,0,1-.514-.856l20.659-12.88L7.28,38.876a.5.5,0,0,1-.513-.857L25.088,26.638,7.28,36.918a.5.5,0,0,1-.512-.857L22.35,26.419l-15.07,8.7a.5.5,0,0,1-.515-.856l18.6-11.649L7.28,33.055a.5.5,0,0,1-.511-.859l9.563-5.871L7.28,31.551a.5.5,0,0,1-.51-.86l3.934-2.4L7.28,30.269a.5.5,0,0,1-.514-.858l11.245-7L7.28,28.6a.5.5,0,0,1-.518-.855l13.784-8.777L7.28,26.629a.5.5,0,0,1-.513-.858l4.041-2.506L7.28,25.3a.5.5,0,0,1-.518-.855l8.228-5.229L7.28,23.668a.5.5,0,0,1-.523-.852l9.54-6.227L7.28,21.794a.5.5,0,0,1-.521-.853L12.383,17.3l-5.1,2.945a.5.5,0,0,1-.532-.845l7.974-5.464-7.442,4.3a.5.5,0,0,1-.533-.844l5.145-3.534L7.28,16.518a.5.5,0,0,1-.553-.83l5.718-4.378L7.28,14.291a.5.5,0,0,1-.567-.819l3.611-2.966L7.782,11.974a.5.5,0,0,1-.659-.145.5.5,0,0,1,.086-.67l3.212-2.721a.5.5,0,0,1,.183-.682l1.987-1.148a.5.5,0,0,1,.573.815l-1.072.908,3-1.733a.5.5,0,0,1,.567.819l-3.611,2.965L18.607,6.6a.5.5,0,0,1,.554.83l-5.718,4.377L22.463,6.6A.5.5,0,0,1,23,7.442l-5.147,3.536L25.436,6.6a.5.5,0,0,1,.532.844L18,12.906,28.923,6.6a.5.5,0,0,1,.521.852L23.812,11.1,31.6,6.6a.5.5,0,0,1,.523.851l-9.536,6.225L34.849,6.6a.5.5,0,0,1,.518.854L27.14,12.681,37.677,6.6a.5.5,0,0,1,.513.857l-4.045,2.51L39.978,6.6a.5.5,0,0,1,.518.854L26.71,16.231,43.4,6.6a.5.5,0,0,1,.515.857l-11.245,7L46.282,6.6a.5.5,0,0,1,.511.859L42.9,9.831,47.942,6.92a.5.5,0,0,1,.512.858l-9.583,5.884,10.1-5.831a.5.5,0,0,1,.515.857L30.891,20.334,50.279,9.14a.5.5,0,0,1,.513.857L35.2,19.642,51.42,10.28a.5.5,0,0,1,.514.858L33.623,22.513,52.515,11.605a.5.5,0,0,1,.514.857L32.367,25.343,52.72,13.593a.5.5,0,0,1,.509.86l-2.7,1.629,2.187-1.263a.5.5,0,0,1,.513.858L34.86,27.054,52.72,16.743a.5.5,0,0,1,.515.857L30.324,31.976l22.4-12.93a.5.5,0,0,1,.513.857L34.77,31.343,52.72,20.98a.5.5,0,0,1,.51.86L42.073,28.662,52.72,22.516a.5.5,0,0,1,.512.857l-15.77,9.754L52.72,24.318a.5.5,0,0,1,.513.858l-16.1,9.993,15.585-9a.5.5,0,0,1,.513.857l-15.5,9.639L52.72,28.015a.5.5,0,0,1,.512.858L43.1,35.117l9.619-5.554a.5.5,0,0,1,.517.856L37.9,40.114,52.72,31.561a.5.5,0,0,1,.517.855L41.192,40.027,52.72,33.372a.5.5,0,0,1,.512.858l-2.147,1.326,1.635-.944a.5.5,0,0,1,.521.853L42.356,42.494,52.72,36.511a.5.5,0,0,1,.519.853l-6.68,4.278,6.161-3.557a.5.5,0,0,1,.527.849l-8.88,5.929,8.353-4.822a.5.5,0,0,1,.518.855l-.421.267a.5.5,0,0,1,.432.892L48.581,45.19,52.72,42.8a.5.5,0,0,1,.543.838l-5.621,4.074,5.078-2.932a.5.5,0,0,1,.532.846l-.461.314a.5.5,0,0,1,.5.852l-3.382,2.812,1.8-1.037a.5.5,0,0,1,.568.819L49.6,51.6a.5.5,0,0,1-.2.648l-1.986,1.147a.5.5,0,0,1-.568-.819l.167-.137-1.675.966a.5.5,0,0,1-.569-.817l3.382-2.814L41.855,53.4a.5.5,0,0,1-.532-.845l.391-.267L39.787,53.4a.5.5,0,0,1-.543-.838l5.622-4.074L36.356,53.4a.5.5,0,0,1-.529-.847l4.661-3.132L33.6,53.4A.5.5,0,0,1,33.346,53.47Z" fill="#2751af"/><path d="M14.705,49.47a.5.5,0,0,1-.267-.922L28.7,39.492,13.045,48.528a.5.5,0,0,1-.515-.856l11.84-7.4L11.957,47.44a.5.5,0,0,1-.517-.855l16.048-10.14L11.28,45.8a.5.5,0,0,1-.515-.857l15.152-9.515L11.28,43.882a.5.5,0,0,1-.511-.859l6.309-3.873L11.28,42.5a.5.5,0,0,1-.513-.857l10.675-6.617L11.28,40.891a.5.5,0,0,1-.511-.859l5.856-3.593L11.28,39.525a.5.5,0,0,1-.511-.858l7.113-4.374L11.28,38.1a.5.5,0,0,1-.517-.855L27.5,26.669,11.28,36.033a.5.5,0,0,1-.516-.855l15.494-9.789L11.28,34.035a.5.5,0,0,1-.517-.855l14.391-9.1L11.28,32.089a.5.5,0,0,1-.51-.86l.989-.605-.479.275a.5.5,0,0,1-.523-.851l14.284-9.307L11.28,28.686a.5.5,0,0,1-.516-.856l5.488-3.459-4.972,2.87a.5.5,0,0,1-.516-.855l3.2-2.015L11.28,25.918a.5.5,0,0,1-.52-.854l4.682-3-4.162,2.4a.5.5,0,0,1-.527-.849l6.66-4.444-6.133,3.54a.5.5,0,0,1-.529-.848l4.736-3.191L11.28,21.1a.5.5,0,0,1-.527-.849l1.491-.994-.964.557a.5.5,0,0,1-.55-.833L15.2,15.623,11.28,17.888a.5.5,0,0,1-.578-.81l3.481-3.031-2.9,1.675a.5.5,0,0,1-.639-.746l1.9-2.364a.5.5,0,0,1-.21-.93L14.21,10.6a.5.5,0,0,1,.63.107.5.5,0,0,1,.01.639L13.1,13.517,18.156,10.6a.5.5,0,0,1,.578.809l-3.48,3.032L21.908,10.6a.5.5,0,0,1,.55.833l-4.474,3.356L25.241,10.6a.5.5,0,0,1,.528.848l-1.486.99L27.468,10.6a.5.5,0,0,1,.529.847l-4.739,3.194,7-4.041a.5.5,0,0,1,.527.848l-6.664,4.448L33.3,10.6a.5.5,0,0,1,.52.853l-4.673,3L35.817,10.6a.5.5,0,0,1,.517.855l-3.188,2.01L38.108,10.6a.5.5,0,0,1,.517.855l-5.5,3.466L40.611,10.6a.5.5,0,0,1,.524.851L26.854,20.754,44.445,10.6a.5.5,0,0,1,.511.859l-.977.6,2.166-1.25a.5.5,0,0,1,.517.855l-14.4,9.1,15.2-8.779a.5.5,0,0,1,.516.856L32.5,22.63l16.086-9.287a.5.5,0,0,1,.518.855L32.358,24.78,48.72,15.335a.5.5,0,0,1,.511.858l-7.113,4.374,6.6-3.811a.5.5,0,0,1,.511.858L43.4,21.192,48.72,18.12a.5.5,0,0,1,.513.858L38.541,25.6,48.72,19.728a.5.5,0,0,1,.511.858l-6.309,3.873,5.8-3.347a.5.5,0,0,1,.515.857L34.1,31.477,48.72,23.033a.5.5,0,0,1,.516.856L33.179,34.033,48.72,25.062a.5.5,0,0,1,.514.856L37.4,33.314,48.72,26.777a.5.5,0,0,1,.517.855L34.981,36.686,48.72,28.754a.5.5,0,0,1,.518.854L37.341,37.2,48.72,30.626a.5.5,0,0,1,.523.852L37.084,39.415,48.72,32.7a.5.5,0,0,1,.515.857L46.91,35.014l1.81-1.044a.5.5,0,0,1,.519.853l-4.721,3.03,4.2-2.426a.5.5,0,0,1,.526.848l-6.467,4.3,5.941-3.429a.5.5,0,0,1,.526.848l-3.958,2.632,3.432-1.98a.5.5,0,0,1,.541.838l-5.538,3.97,5-2.885a.5.5,0,0,1,.538.842l-2.251,1.585,1.713-.988a.5.5,0,0,1,.549.833l-1.924,1.435,1.375-.794a.5.5,0,0,1,.575.813L47.5,45.825l1.215-.7a.5.5,0,0,1,.6.787L47.728,47.5a.5.5,0,0,1-.064.822L45.791,49.4a.5.5,0,0,1-.6-.787L45.9,47.9l-2.595,1.5a.5.5,0,0,1-.576-.812l1.793-1.533L40.459,49.4a.5.5,0,0,1-.549-.833l1.925-1.435L37.9,49.4a.5.5,0,0,1-.538-.841l2.243-1.58L35.415,49.4a.5.5,0,0,1-.541-.839l5.541-3.971L32.082,49.4a.5.5,0,0,1-.526-.848l3.956-2.631L29.484,49.4a.5.5,0,0,1-.526-.848l6.47-4.3L26.512,49.4a.5.5,0,0,1-.52-.853l4.72-3.028L23.988,49.4a.5.5,0,0,1-.515-.856L25.8,47.087,21.786,49.4a.5.5,0,0,1-.523-.851l12.161-7.94L18.2,49.4a.5.5,0,0,1-.518-.854l11.889-7.582L14.955,49.4A.5.5,0,0,1,14.705,49.47Z" fill="#3560d8"/><path d="M26.38,45.453a.5.5,0,0,1-.359-.849l1.034-1.06-1.435.828a.5.5,0,0,1-.574-.813l3.247-2.768-2.179,1.258a.5.5,0,0,1-.562-.823l4.866-3.891-3.663,2.114a.5.5,0,0,1-.532-.845l.7-.48a.5.5,0,0,1-.362-.9l3.433-2.4-2.446,1.412a.5.5,0,0,1-.555-.829l5.386-4.132L28.173,33.7a.5.5,0,0,1-.559-.826L30.006,31l-4.18,2.412a.5.5,0,0,1-.564-.821l2.387-1.927-4.76,2.748a.5.5,0,0,1-.56-.825l4.4-3.48-6.379,3.684a.5.5,0,0,1-.546-.836l5.6-4.112-3.3,1.906a.5.5,0,0,1-.533-.845l2-1.374a.5.5,0,0,1-.251-.9L26.5,24.282l-.3.172a.5.5,0,0,1-.543-.838L27.469,22.3a.489.489,0,0,1-.246-.193.5.5,0,0,1,.112-.674l1.96-1.5a.5.5,0,0,1-.191-.812l2.805-2.984a.49.49,0,0,1-.052-.074.5.5,0,0,1,.183-.682l1.331-.769a.5.5,0,0,1,.614.776l-1.831,1.948,2.195-1.267a.5.5,0,0,1,.553.83l-.876.671a.5.5,0,0,1,.489.866l-.708.512a.484.484,0,0,1,.485.221.5.5,0,0,1-.12.677L31,22.194l2.146-1.238a.5.5,0,0,1,.533.845l-1.022.7.125-.071a.5.5,0,0,1,.546.836l-5.6,4.111L32.2,24.8a.5.5,0,0,1,.56.825L28.352,29.1l4.358-2.516a.5.5,0,0,1,.564.821l-2.388,1.928,4.762-2.749a.5.5,0,0,1,.559.826l-2.389,1.87,4.671-2.7a.5.5,0,0,1,.555.829L33.657,31.55l5.84-3.371a.5.5,0,0,1,.536.842l-3.434,2.4.707-.408a.5.5,0,0,1,.532.844L36.013,33.11a.508.508,0,0,1,.3.2.5.5,0,0,1-.1.673l-4.869,3.893,1.194-.689a.5.5,0,0,1,.574.814L29.8,40.822a.506.506,0,0,1,.533.174.5.5,0,0,1-.036.655l-2.183,2.24a.352.352,0,0,1,.03.045.5.5,0,0,1-.183.682l-1.33.768A.489.489,0,0,1,26.38,45.453Z" fill="#f7d33c"/><path d="M36.187,10.415c-6.608,0-13.329-.375-19.927,0-3.135.179-5.337,1.318-5.729,4.726-.782,6.8,0,14.134,0,20.98,0,4.6-1.164,9.268,2.279,12.711,4.183,2.014,10.275.708,14.809.753,29.087,1.595,20.49-.1,21.85-27.046C50.784,10.634,47.293,9.346,36.187,10.415Zm8.742,38c-5.072,1-11.342,0-16.5,0-4.5,0-10.907,1.176-15.184-.515-2.786-2.9-1.778-7.173-1.778-11.025V19.307c0-3.775-.265-7.3,4.49-7.722,5.112-.454,10.479,0,15.61,0,4.215,0,9.539-.907,13.668,0,4.442.975,3.294,5.969,3.294,9.368v18.2C48.531,42.676,49.541,47.505,44.929,48.415Z" fill="#262626"/><path d="M34.1,26.54a6.965,6.965,0,0,1-1.449-.08c.277-2.2,5.038-13.137.206-11.79-2.235.591-4.552,5.349-5.834,7.007L22.455,27.6c-6.477,6.822-1.022,5.789,4.825,5.866-.108,2.226-5.316,15.134.8,11.191l6.669-8.629C38.79,31.739,45.492,24.971,34.1,26.54Zm1.882,6.089-8.963,11.6c-1.573.915.211-5.751.236-5.852-.02-1.118,2.2-5.781.731-5.814a29.767,29.767,0,0,1-4.888,0c-1.775-.309-2.391.179-1.811-1.669,2.027-3.307,5.139-6.26,7.353-9.514,1.028-1.328,2.061-3.281,3.361-4.347.948-.777,1.4-2.2,1.888-.017.522,2.335-1.862,7.444-2.466,9.861-.09.359.264.566.581.566C38.267,26.9,42.1,26.213,35.987,32.629Z" fill="#262626"/><path d="M58.9,27.451c2.962-1.448-4.688-.764-5.407-.9V21.585h5.59c.639,0,.413-1.17-.162-1.17H53.491V15.552h5.384c.565,0,.944-1.1.25-1.1H53.491c.482-4.733-3.826-7.584-7.9-7.885V.913c-1.829-2.085-1.037,4.205-1.188,5.55-1.644-.055-3.285-.011-4.929-.024V.877c0-.785-.954-.373-.954.246V6.439H33.561V.93c0-.7-1.122-.427-1.122.14V6.439H27.448V.957c-1.4-2.506-.78,4.792-.9,5.482H21.6c-.152-1.392.645-7.686-1.2-5.489V6.439c-1.631.009-3.423-.037-4.84.022V.935c0-.7-1.124-.437-1.124.13V6.541A9.184,9.184,0,0,0,6.22,14.407H1.09c-.6,0-.765,1.186-.18,1.186H6.1a36.04,36.04,0,0,0,.093,4.82H.931c-.641,0-.437,1.174.138,1.174H6.286a38.906,38.906,0,0,1,.206,4.949H1.165c-.607,0-1.111.928-.33.928H6.479c-.037,1.623-.1,3.273-.175,4.936H.981c-2.321,1.869,4.249,1.036,5.273,1.2-.067,1.611-.124,3.228-.147,4.838H1.06c-.565,0-.817,1.125-.12,1.125H6.1c0,1.678.044,3.342.176,4.974H.833c-.781,0-.272.926.334.926H6.375c-.073,4.308,3.916,7.93,8.056,8.087v5.61c0,.622,1.138.252,1.138-.32V53.572c1.652.028,3.3.049,4.957.054v5.508c0,.784.948.349.948-.268V53.625q2.463,0,4.928-.008v5.428c1.836,2.2,1.047-4.008,1.2-5.435l4.831-.029v5.57c0,.624,1.142.271,1.142-.3V53.576c1.652,0,3.3-.032,4.949,0v5.537c0,.785.96.4.96-.222V53.6c1.629.057,3.3.143,4.921.089.14,1.561-.622,7.536,1.2,5.344V53.619c4.039-.2,7.259-4.2,7.942-8.029h5.435c2.466-1.9-4.365-.988-5.268-1.18a31.714,31.714,0,0,0,.012-4.962c.665-.113,8.015.5,5.236-.9h-5.29c-.12-1.724-.2-3.3-.175-4.952.91-.191,7.935.724,5.507-1.2H53.491V27.451ZM52.709,44.573a.781.781,0,0,0-.091.8c-.156,5.382-4.93,7.2-9.451,7.065h-20.7c-5.975.409-13.887.586-15.112-7.007.353-.106.216-.524-.1-.751a31.266,31.266,0,0,1,.037-5.288.65.65,0,0,0,.059-.844c.283-3.927.092-7.608.145-11.5a.336.336,0,0,0,0-.4c.357-6.824-2.507-18.778,7.586-19.089H37.538c17.783-1.345,14.816,5.267,14.971,19.324a.365.365,0,0,0,0,.43c-.011,1.776.035,3.515.12,5.348a.812.812,0,0,0,.034.748c.079,1.708.159,3.435.2,5.156-.584.071-.53.739.02.856A49.148,49.148,0,0,1,52.709,44.573Z" fill="#262626"/></svg>
