<svg xmlns="http://www.w3.org/2000/svg" xmlns:xlink="http://www.w3.org/1999/xlink" width="320" zoomAndPan="magnify" viewBox="0 0 240 89.999999" height="120" preserveAspectRatio="xMidYMid meet" version="1.2"><defs/><g id="85b96a0878"><rect x="0" width="240" y="0" height="89.999999" style="fill:#ffffff;fill-opacity:1;stroke:none;"/><rect x="0" width="240" y="0" height="89.999999" style="fill:#ffffff;fill-opacity:1;stroke:none;"/><path style=" stroke:none;fill-rule:nonzero;fill:#2751af;fill-opacity:1;" d="M 49.375 77.046875 C 49.222656 77.046875 49.085938 77 48.960938 76.910156 C 48.839844 76.816406 48.757812 76.699219 48.714844 76.550781 C 48.671875 76.40625 48.675781 76.257812 48.730469 76.117188 C 48.785156 75.972656 48.875 75.859375 49.007812 75.777344 L 49.28125 75.605469 L 46.945312 76.953125 C 46.785156 77.039062 46.613281 77.0625 46.4375 77.015625 C 46.261719 76.96875 46.125 76.867188 46.03125 76.710938 C 45.933594 76.558594 45.902344 76.390625 45.941406 76.210938 C 45.976562 76.035156 46.070312 75.890625 46.21875 75.785156 L 58.433594 67.628906 L 42.285156 76.949219 C 42.121094 77.039062 41.953125 77.058594 41.773438 77.011719 C 41.597656 76.964844 41.460938 76.863281 41.363281 76.707031 C 41.269531 76.546875 41.242188 76.378906 41.28125 76.199219 C 41.320312 76.019531 41.414062 75.878906 41.570312 75.777344 L 50.746094 69.902344 L 38.535156 76.949219 C 38.375 77.039062 38.203125 77.0625 38.027344 77.015625 C 37.847656 76.96875 37.710938 76.867188 37.613281 76.710938 C 37.515625 76.550781 37.488281 76.382812 37.527344 76.203125 C 37.566406 76.023438 37.664062 75.882812 37.816406 75.777344 L 52.804688 66.105469 L 34.011719 76.949219 C 33.847656 77.042969 33.679688 77.0625 33.496094 77.015625 C 33.316406 76.96875 33.179688 76.863281 33.082031 76.703125 C 32.988281 76.542969 32.960938 76.375 33.003906 76.191406 C 33.046875 76.011719 33.148438 75.871094 33.304688 75.769531 L 36.226562 73.964844 L 31.058594 76.949219 C 30.898438 77.039062 30.726562 77.058594 30.550781 77.011719 C 30.371094 76.964844 30.234375 76.859375 30.140625 76.703125 C 30.042969 76.546875 30.015625 76.375 30.058594 76.195312 C 30.097656 76.015625 30.195312 75.875 30.347656 75.773438 L 46.917969 65.304688 L 26.746094 76.949219 C 26.582031 77.042969 26.410156 77.066406 26.230469 77.019531 C 26.050781 76.972656 25.914062 76.867188 25.816406 76.710938 C 25.71875 76.550781 25.691406 76.378906 25.734375 76.199219 C 25.777344 76.015625 25.875 75.875 26.03125 75.773438 L 47.113281 62.445312 L 21.988281 76.949219 C 21.824219 77.042969 21.65625 77.0625 21.476562 77.015625 C 21.292969 76.96875 21.15625 76.863281 21.0625 76.703125 C 20.964844 76.542969 20.9375 76.375 20.980469 76.191406 C 21.023438 76.011719 21.125 75.871094 21.28125 75.769531 L 35.210938 67.1875 L 19.640625 76.179688 C 19.476562 76.277344 19.304688 76.304688 19.121094 76.257812 C 18.933594 76.210938 18.792969 76.105469 18.695312 75.945312 C 18.597656 75.78125 18.574219 75.605469 18.621094 75.421875 C 18.664062 75.238281 18.769531 75.097656 18.933594 75 L 40.246094 61.746094 L 18.015625 74.582031 C 17.851562 74.679688 17.679688 74.707031 17.496094 74.660156 C 17.3125 74.613281 17.171875 74.507812 17.074219 74.347656 C 16.976562 74.183594 16.949219 74.011719 16.996094 73.828125 C 17.042969 73.640625 17.148438 73.5 17.308594 73.402344 L 39.4375 59.667969 L 16.402344 72.960938 C 16.238281 73.050781 16.070312 73.070312 15.890625 73.019531 C 15.714844 72.972656 15.578125 72.867188 15.480469 72.710938 C 15.386719 72.550781 15.363281 72.382812 15.402344 72.203125 C 15.445312 72.023438 15.542969 71.882812 15.695312 71.78125 L 37.382812 58.371094 L 14.832031 71.390625 C 14.671875 71.480469 14.5 71.5 14.320312 71.453125 C 14.144531 71.40625 14.007812 71.300781 13.910156 71.140625 C 13.816406 70.984375 13.789062 70.8125 13.832031 70.632812 C 13.871094 70.453125 13.972656 70.3125 14.125 70.210938 L 29.488281 60.820312 L 13.75 69.90625 C 13.589844 69.996094 13.417969 70.015625 13.238281 69.96875 C 13.0625 69.921875 12.925781 69.816406 12.828125 69.660156 C 12.734375 69.5 12.707031 69.332031 12.75 69.152344 C 12.789062 68.96875 12.890625 68.828125 13.042969 68.730469 L 38.417969 53.003906 L 13.535156 67.375 C 13.371094 67.464844 13.199219 67.488281 13.019531 67.441406 C 12.835938 67.394531 12.699219 67.292969 12.601562 67.132812 C 12.503906 66.972656 12.480469 66.800781 12.523438 66.617188 C 12.566406 66.433594 12.667969 66.292969 12.828125 66.195312 L 44.328125 46.425781 L 13.535156 64.207031 C 13.371094 64.296875 13.203125 64.320312 13.019531 64.273438 C 12.839844 64.222656 12.703125 64.121094 12.609375 63.960938 C 12.511719 63.800781 12.484375 63.628906 12.527344 63.449219 C 12.570312 63.265625 12.671875 63.125 12.828125 63.027344 L 38.09375 47.386719 L 13.535156 61.5625 C 13.371094 61.648438 13.203125 61.667969 13.023438 61.621094 C 12.84375 61.570312 12.710938 61.464844 12.613281 61.308594 C 12.519531 61.148438 12.496094 60.976562 12.539062 60.796875 C 12.582031 60.617188 12.679688 60.476562 12.835938 60.378906 L 16.546875 58.136719 L 13.535156 59.875 C 13.375 59.960938 13.203125 59.976562 13.03125 59.929688 C 12.855469 59.878906 12.71875 59.777344 12.625 59.621094 C 12.53125 59.464844 12.503906 59.296875 12.542969 59.117188 C 12.582031 58.941406 12.675781 58.800781 12.828125 58.695312 L 41.234375 40.988281 L 13.535156 56.980469 C 13.375 57.066406 13.203125 57.085938 13.027344 57.035156 C 12.851562 56.988281 12.714844 56.882812 12.621094 56.726562 C 12.527344 56.570312 12.5 56.402344 12.539062 56.222656 C 12.582031 56.042969 12.675781 55.902344 12.828125 55.800781 L 38.019531 40.152344 L 13.535156 54.289062 C 13.375 54.371094 13.207031 54.386719 13.03125 54.339844 C 12.855469 54.289062 12.71875 54.1875 12.628906 54.03125 C 12.535156 53.875 12.507812 53.707031 12.546875 53.527344 C 12.585938 53.351562 12.679688 53.210938 12.832031 53.109375 L 34.257812 39.851562 L 13.535156 51.8125 C 13.375 51.902344 13.203125 51.921875 13.027344 51.871094 C 12.847656 51.824219 12.714844 51.722656 12.617188 51.5625 C 12.523438 51.40625 12.496094 51.238281 12.535156 51.058594 C 12.578125 50.878906 12.671875 50.738281 12.828125 50.636719 L 38.402344 34.621094 L 13.535156 48.976562 C 13.371094 49.066406 13.203125 49.085938 13.023438 49.039062 C 12.84375 48.988281 12.707031 48.886719 12.613281 48.726562 C 12.515625 48.566406 12.492188 48.394531 12.535156 48.214844 C 12.578125 48.035156 12.675781 47.894531 12.832031 47.792969 L 25.980469 39.722656 L 13.535156 46.90625 C 13.371094 47 13.199219 47.023438 13.019531 46.976562 C 12.835938 46.925781 12.699219 46.824219 12.601562 46.660156 C 12.507812 46.5 12.480469 46.328125 12.527344 46.144531 C 12.570312 45.964844 12.675781 45.824219 12.832031 45.726562 L 18.242188 42.425781 L 13.535156 45.144531 C 13.371094 45.242188 13.199219 45.269531 13.015625 45.222656 C 12.832031 45.175781 12.691406 45.070312 12.59375 44.90625 C 12.496094 44.746094 12.46875 44.570312 12.515625 44.386719 C 12.5625 44.203125 12.664062 44.0625 12.828125 43.964844 L 28.289062 34.339844 L 13.535156 42.851562 C 13.375 42.941406 13.203125 42.964844 13.023438 42.917969 C 12.839844 42.871094 12.703125 42.769531 12.605469 42.609375 C 12.507812 42.449219 12.480469 42.28125 12.523438 42.097656 C 12.566406 41.917969 12.664062 41.773438 12.824219 41.675781 L 31.777344 29.605469 L 13.535156 40.140625 C 13.371094 40.230469 13.203125 40.253906 13.019531 40.207031 C 12.839844 40.15625 12.703125 40.054688 12.609375 39.894531 C 12.511719 39.734375 12.484375 39.5625 12.527344 39.382812 C 12.570312 39.199219 12.671875 39.058594 12.828125 38.960938 L 18.386719 35.515625 L 13.535156 38.3125 C 13.375 38.40625 13.203125 38.429688 13.023438 38.382812 C 12.839844 38.335938 12.703125 38.230469 12.605469 38.070312 C 12.507812 37.914062 12.480469 37.742188 12.523438 37.558594 C 12.566406 37.378906 12.664062 37.238281 12.824219 37.136719 L 24.136719 29.945312 L 13.535156 36.070312 C 13.375 36.164062 13.203125 36.1875 13.019531 36.140625 C 12.839844 36.09375 12.699219 35.992188 12.601562 35.832031 C 12.503906 35.675781 12.476562 35.503906 12.519531 35.320312 C 12.558594 35.140625 12.660156 35 12.816406 34.898438 L 25.933594 26.335938 L 13.535156 33.492188 C 13.375 33.582031 13.203125 33.605469 13.023438 33.558594 C 12.84375 33.511719 12.703125 33.410156 12.609375 33.253906 C 12.511719 33.09375 12.484375 32.925781 12.523438 32.742188 C 12.566406 32.5625 12.664062 32.421875 12.820312 32.320312 L 20.550781 27.3125 L 13.539062 31.363281 C 13.378906 31.449219 13.210938 31.472656 13.035156 31.425781 C 12.859375 31.382812 12.71875 31.28125 12.625 31.128906 C 12.527344 30.972656 12.496094 30.804688 12.53125 30.625 C 12.566406 30.449219 12.660156 30.304688 12.808594 30.199219 L 23.773438 22.6875 L 13.539062 28.597656 C 13.378906 28.6875 13.210938 28.707031 13.035156 28.664062 C 12.859375 28.617188 12.722656 28.519531 12.625 28.363281 C 12.527344 28.210938 12.496094 28.042969 12.53125 27.867188 C 12.566406 27.6875 12.660156 27.546875 12.804688 27.4375 L 19.878906 22.578125 L 13.535156 26.238281 C 13.378906 26.324219 13.210938 26.347656 13.035156 26.308594 C 12.863281 26.265625 12.722656 26.171875 12.625 26.019531 C 12.523438 25.871094 12.488281 25.707031 12.519531 25.527344 C 12.546875 25.351562 12.632812 25.207031 12.773438 25.097656 L 20.636719 19.078125 L 13.535156 23.175781 C 13.378906 23.261719 13.214844 23.289062 13.042969 23.246094 C 12.867188 23.207031 12.730469 23.117188 12.628906 22.96875 C 12.527344 22.824219 12.488281 22.660156 12.515625 22.484375 C 12.539062 22.308594 12.617188 22.164062 12.753906 22.050781 L 17.71875 17.972656 L 14.226562 19.988281 C 14.070312 20.078125 13.90625 20.105469 13.734375 20.066406 C 13.558594 20.027344 13.421875 19.933594 13.320312 19.789062 C 13.214844 19.644531 13.175781 19.484375 13.199219 19.304688 C 13.222656 19.128906 13.300781 18.984375 13.4375 18.867188 L 17.855469 15.128906 C 17.757812 14.964844 17.738281 14.789062 17.785156 14.605469 C 17.835938 14.421875 17.941406 14.285156 18.105469 14.191406 L 20.835938 12.609375 C 20.992188 12.519531 21.15625 12.496094 21.332031 12.535156 C 21.503906 12.570312 21.644531 12.664062 21.746094 12.808594 C 21.847656 12.957031 21.886719 13.117188 21.863281 13.292969 C 21.839844 13.472656 21.761719 13.617188 21.625 13.730469 L 20.152344 14.980469 L 24.277344 12.597656 C 24.429688 12.507812 24.59375 12.484375 24.769531 12.523438 C 24.941406 12.5625 25.082031 12.65625 25.183594 12.804688 C 25.28125 12.949219 25.320312 13.113281 25.296875 13.289062 C 25.273438 13.464844 25.191406 13.609375 25.054688 13.722656 L 20.089844 17.800781 L 29.109375 12.601562 C 29.265625 12.507812 29.433594 12.484375 29.609375 12.527344 C 29.785156 12.566406 29.925781 12.664062 30.023438 12.8125 C 30.125 12.964844 30.160156 13.128906 30.132812 13.308594 C 30.101562 13.488281 30.015625 13.632812 29.871094 13.742188 L 22.007812 19.757812 L 34.410156 12.601562 C 34.570312 12.507812 34.738281 12.488281 34.917969 12.53125 C 35.09375 12.574219 35.230469 12.675781 35.332031 12.828125 C 35.429688 12.984375 35.460938 13.148438 35.425781 13.328125 C 35.390625 13.507812 35.300781 13.652344 35.148438 13.757812 L 28.074219 18.621094 L 38.5 12.601562 C 38.660156 12.515625 38.824219 12.496094 39 12.539062 C 39.175781 12.585938 39.3125 12.6875 39.40625 12.839844 C 39.503906 12.992188 39.535156 13.15625 39.5 13.335938 C 39.46875 13.511719 39.378906 13.652344 39.230469 13.761719 L 28.273438 21.269531 L 43.292969 12.601562 C 43.453125 12.511719 43.625 12.492188 43.800781 12.539062 C 43.976562 12.585938 44.113281 12.691406 44.207031 12.84375 C 44.304688 13 44.332031 13.167969 44.292969 13.347656 C 44.257812 13.527344 44.160156 13.667969 44.011719 13.773438 L 36.265625 18.789062 L 46.976562 12.601562 C 47.136719 12.511719 47.304688 12.492188 47.480469 12.539062 C 47.660156 12.585938 47.796875 12.6875 47.890625 12.84375 C 47.988281 13 48.015625 13.167969 47.980469 13.347656 C 47.941406 13.523438 47.84375 13.667969 47.695312 13.769531 L 34.582031 22.328125 L 51.441406 12.601562 C 51.605469 12.511719 51.773438 12.492188 51.949219 12.539062 C 52.125 12.589844 52.261719 12.691406 52.359375 12.847656 C 52.453125 13.003906 52.480469 13.171875 52.441406 13.351562 C 52.402344 13.53125 52.304688 13.671875 52.15625 13.773438 L 40.84375 20.960938 L 55.332031 12.601562 C 55.492188 12.511719 55.660156 12.496094 55.839844 12.542969 C 56.015625 12.59375 56.152344 12.695312 56.246094 12.851562 C 56.339844 13.011719 56.367188 13.179688 56.324219 13.359375 C 56.285156 13.535156 56.1875 13.675781 56.035156 13.777344 L 50.472656 17.230469 L 58.496094 12.601562 C 58.65625 12.511719 58.824219 12.492188 59.003906 12.539062 C 59.179688 12.589844 59.316406 12.691406 59.410156 12.847656 C 59.503906 13.003906 59.53125 13.171875 59.492188 13.351562 C 59.453125 13.53125 59.359375 13.671875 59.207031 13.773438 L 40.25 25.84375 L 63.199219 12.601562 C 63.363281 12.507812 63.535156 12.484375 63.714844 12.53125 C 63.898438 12.578125 64.035156 12.679688 64.132812 12.839844 C 64.230469 13.003906 64.253906 13.171875 64.210938 13.355469 C 64.167969 13.539062 64.066406 13.679688 63.90625 13.777344 L 48.445312 23.402344 L 67.164062 12.601562 C 67.324219 12.511719 67.496094 12.488281 67.675781 12.539062 C 67.855469 12.585938 67.992188 12.691406 68.085938 12.851562 C 68.179688 13.007812 68.207031 13.179688 68.164062 13.359375 C 68.121094 13.539062 68.023438 13.679688 67.867188 13.78125 L 62.511719 17.042969 L 69.445312 13.039062 C 69.605469 12.953125 69.777344 12.933594 69.953125 12.980469 C 70.132812 13.03125 70.269531 13.132812 70.363281 13.292969 C 70.457031 13.449219 70.484375 13.621094 70.441406 13.800781 C 70.402344 13.980469 70.304688 14.117188 70.148438 14.21875 L 56.972656 22.308594 L 70.859375 14.292969 C 71.023438 14.199219 71.195312 14.175781 71.375 14.222656 C 71.558594 14.269531 71.695312 14.375 71.792969 14.535156 C 71.890625 14.695312 71.914062 14.867188 71.871094 15.046875 C 71.828125 15.230469 71.726562 15.371094 71.566406 15.472656 L 46 31.484375 L 72.660156 16.09375 C 72.820312 16.007812 72.988281 15.988281 73.167969 16.035156 C 73.34375 16.085938 73.476562 16.1875 73.574219 16.347656 C 73.667969 16.503906 73.695312 16.671875 73.652344 16.851562 C 73.613281 17.027344 73.515625 17.167969 73.363281 17.269531 L 51.925781 30.53125 L 74.226562 17.660156 C 74.390625 17.5625 74.5625 17.539062 74.746094 17.582031 C 74.929688 17.628906 75.070312 17.734375 75.167969 17.898438 C 75.265625 18.058594 75.292969 18.234375 75.246094 18.417969 C 75.199219 18.601562 75.097656 18.742188 74.933594 18.839844 L 49.757812 34.480469 L 75.734375 19.480469 C 75.894531 19.394531 76.066406 19.371094 76.242188 19.421875 C 76.421875 19.46875 76.558594 19.570312 76.65625 19.730469 C 76.75 19.890625 76.777344 20.058594 76.734375 20.238281 C 76.691406 20.417969 76.59375 20.558594 76.441406 20.660156 L 48.03125 38.371094 L 76.015625 22.214844 C 76.175781 22.128906 76.347656 22.105469 76.527344 22.15625 C 76.703125 22.207031 76.839844 22.308594 76.933594 22.46875 C 77.03125 22.628906 77.054688 22.796875 77.011719 22.976562 C 76.96875 23.15625 76.871094 23.296875 76.714844 23.398438 L 73.003906 25.636719 L 76.007812 23.902344 C 76.171875 23.808594 76.34375 23.789062 76.523438 23.835938 C 76.703125 23.882812 76.839844 23.988281 76.9375 24.148438 C 77.03125 24.308594 77.058594 24.476562 77.015625 24.660156 C 76.972656 24.839844 76.871094 24.980469 76.714844 25.082031 L 51.457031 40.722656 L 76.015625 26.546875 C 76.175781 26.453125 76.347656 26.429688 76.53125 26.476562 C 76.710938 26.523438 76.851562 26.628906 76.949219 26.789062 C 77.042969 26.949219 77.070312 27.121094 77.027344 27.300781 C 76.984375 27.484375 76.882812 27.625 76.722656 27.726562 L 45.21875 47.492188 L 76.019531 29.714844 C 76.183594 29.625 76.351562 29.609375 76.527344 29.65625 C 76.703125 29.707031 76.839844 29.808594 76.933594 29.964844 C 77.027344 30.125 77.054688 30.292969 77.015625 30.472656 C 76.976562 30.648438 76.878906 30.789062 76.726562 30.890625 L 51.332031 46.621094 L 76.015625 32.371094 C 76.179688 32.28125 76.351562 32.257812 76.53125 32.304688 C 76.710938 32.351562 76.851562 32.457031 76.945312 32.621094 C 77.042969 32.78125 77.066406 32.953125 77.023438 33.132812 C 76.976562 33.316406 76.875 33.457031 76.714844 33.554688 L 61.375 42.933594 L 76.015625 34.484375 C 76.175781 34.402344 76.34375 34.382812 76.519531 34.433594 C 76.695312 34.480469 76.828125 34.585938 76.921875 34.742188 C 77.015625 34.898438 77.042969 35.066406 77.003906 35.242188 C 76.964844 35.421875 76.871094 35.558594 76.71875 35.664062 L 55.035156 49.074219 L 76.015625 36.960938 C 76.175781 36.871094 76.347656 36.847656 76.527344 36.898438 C 76.707031 36.945312 76.847656 37.046875 76.941406 37.207031 C 77.039062 37.367188 77.0625 37.539062 77.019531 37.71875 C 76.976562 37.902344 76.878906 38.042969 76.71875 38.140625 L 54.582031 51.882812 L 76.011719 39.507812 C 76.175781 39.421875 76.34375 39.402344 76.519531 39.453125 C 76.695312 39.5 76.832031 39.601562 76.925781 39.761719 C 77.019531 39.917969 77.046875 40.085938 77.007812 40.265625 C 76.964844 40.445312 76.871094 40.585938 76.71875 40.6875 L 55.40625 53.9375 L 76.015625 42.046875 C 76.175781 41.957031 76.347656 41.9375 76.523438 41.988281 C 76.703125 42.035156 76.839844 42.140625 76.933594 42.296875 C 77.027344 42.457031 77.054688 42.625 77.011719 42.804688 C 76.972656 42.984375 76.875 43.125 76.71875 43.226562 L 62.789062 51.8125 L 76.011719 44.175781 C 76.175781 44.078125 76.347656 44.050781 76.535156 44.097656 C 76.71875 44.140625 76.859375 44.246094 76.957031 44.40625 C 77.054688 44.570312 77.082031 44.742188 77.035156 44.925781 C 76.992188 45.113281 76.886719 45.253906 76.722656 45.351562 L 55.636719 58.683594 L 76.015625 46.921875 C 76.175781 46.832031 76.347656 46.8125 76.523438 46.859375 C 76.703125 46.90625 76.839844 47.011719 76.933594 47.167969 C 77.03125 47.324219 77.058594 47.496094 77.015625 47.675781 C 76.976562 47.855469 76.878906 47.996094 76.726562 48.097656 L 60.164062 58.5625 L 76.015625 49.410156 C 76.175781 49.324219 76.347656 49.304688 76.523438 49.351562 C 76.703125 49.402344 76.839844 49.503906 76.933594 49.664062 C 77.027344 49.820312 77.054688 49.992188 77.011719 50.171875 C 76.972656 50.351562 76.875 50.492188 76.71875 50.589844 L 73.765625 52.414062 L 76.015625 51.117188 C 76.175781 51.023438 76.347656 51 76.527344 51.046875 C 76.707031 51.09375 76.84375 51.195312 76.941406 51.355469 C 77.039062 51.515625 77.066406 51.683594 77.027344 51.863281 C 76.984375 52.046875 76.886719 52.1875 76.730469 52.289062 L 61.765625 61.953125 L 76.015625 53.726562 C 76.175781 53.640625 76.34375 53.621094 76.519531 53.671875 C 76.695312 53.71875 76.832031 53.820312 76.925781 53.976562 C 77.023438 54.132812 77.050781 54.300781 77.011719 54.476562 C 76.972656 54.65625 76.878906 54.796875 76.730469 54.902344 L 67.542969 60.78125 L 76.015625 55.890625 C 76.175781 55.800781 76.34375 55.777344 76.523438 55.824219 C 76.703125 55.867188 76.839844 55.96875 76.9375 56.125 C 77.035156 56.285156 77.066406 56.453125 77.027344 56.632812 C 76.988281 56.8125 76.894531 56.957031 76.738281 57.058594 L 64.53125 65.210938 L 76.015625 58.582031 C 76.175781 58.488281 76.347656 58.464844 76.527344 58.511719 C 76.710938 58.558594 76.847656 58.664062 76.945312 58.820312 C 77.039062 58.980469 77.066406 59.152344 77.027344 59.332031 C 76.984375 59.515625 76.882812 59.65625 76.726562 59.757812 L 76.148438 60.125 C 76.3125 60.070312 76.472656 60.078125 76.632812 60.144531 C 76.789062 60.210938 76.90625 60.324219 76.980469 60.476562 C 77.058594 60.632812 77.070312 60.792969 77.027344 60.960938 C 76.980469 61.125 76.886719 61.253906 76.742188 61.351562 L 70.324219 65.660156 L 76.015625 62.375 C 76.171875 62.285156 76.339844 62.261719 76.519531 62.304688 C 76.695312 62.347656 76.835938 62.445312 76.933594 62.597656 C 77.035156 62.75 77.066406 62.917969 77.03125 63.097656 C 77 63.277344 76.910156 63.417969 76.761719 63.527344 L 69.03125 69.128906 L 76.015625 65.097656 C 76.175781 65.003906 76.34375 64.980469 76.523438 65.023438 C 76.703125 65.070312 76.84375 65.167969 76.941406 65.324219 C 77.039062 65.484375 77.070312 65.652344 77.03125 65.832031 C 76.996094 66.015625 76.898438 66.15625 76.746094 66.261719 L 76.113281 66.691406 C 76.269531 66.628906 76.429688 66.628906 76.589844 66.683594 C 76.75 66.738281 76.871094 66.839844 76.957031 66.984375 C 77.042969 67.128906 77.070312 67.285156 77.042969 67.453125 C 77.011719 67.621094 76.929688 67.757812 76.800781 67.863281 L 72.148438 71.730469 L 74.625 70.304688 C 74.78125 70.214844 74.945312 70.191406 75.121094 70.230469 C 75.292969 70.269531 75.433594 70.359375 75.535156 70.507812 C 75.636719 70.65625 75.675781 70.816406 75.648438 70.996094 C 75.625 71.171875 75.542969 71.316406 75.40625 71.429688 L 71.726562 74.476562 C 71.800781 74.636719 71.816406 74.804688 71.761719 74.972656 C 71.707031 75.144531 71.605469 75.277344 71.449219 75.367188 L 68.71875 76.941406 C 68.5625 77.03125 68.398438 77.058594 68.226562 77.019531 C 68.050781 76.980469 67.910156 76.886719 67.808594 76.738281 C 67.707031 76.59375 67.667969 76.429688 67.695312 76.253906 C 67.71875 76.074219 67.800781 75.929688 67.9375 75.816406 L 68.167969 75.628906 L 65.863281 76.957031 C 65.710938 77.042969 65.546875 77.066406 65.375 77.027344 C 65.199219 76.988281 65.0625 76.898438 64.960938 76.75 C 64.859375 76.605469 64.820312 76.445312 64.84375 76.269531 C 64.867188 76.09375 64.945312 75.949219 65.082031 75.832031 L 69.734375 71.964844 L 61.074219 76.949219 C 60.917969 77.039062 60.746094 77.058594 60.570312 77.015625 C 60.394531 76.96875 60.257812 76.871094 60.160156 76.714844 C 60.0625 76.5625 60.03125 76.394531 60.066406 76.214844 C 60.101562 76.035156 60.195312 75.894531 60.34375 75.789062 L 60.882812 75.421875 L 58.230469 76.949219 C 58.074219 77.039062 57.90625 77.066406 57.726562 77.023438 C 57.550781 76.980469 57.414062 76.882812 57.3125 76.726562 C 57.214844 76.574219 57.179688 76.40625 57.214844 76.226562 C 57.246094 76.046875 57.335938 75.90625 57.484375 75.796875 L 65.214844 70.195312 L 53.515625 76.949219 C 53.355469 77.039062 53.1875 77.058594 53.007812 77.015625 C 52.832031 76.96875 52.695312 76.867188 52.597656 76.710938 C 52.5 76.558594 52.472656 76.390625 52.507812 76.210938 C 52.542969 76.03125 52.636719 75.890625 52.789062 75.785156 L 59.195312 71.480469 L 49.726562 76.949219 C 49.617188 77.015625 49.5 77.046875 49.375 77.046875 Z M 49.375 77.046875 "/><path style=" stroke:none;fill-rule:nonzero;fill:#3560d8;fill-opacity:1;" d="M 23.746094 71.546875 C 23.589844 71.546875 23.453125 71.5 23.332031 71.40625 C 23.210938 71.316406 23.128906 71.195312 23.085938 71.050781 C 23.042969 70.902344 23.050781 70.757812 23.101562 70.617188 C 23.15625 70.472656 23.25 70.359375 23.378906 70.277344 L 42.988281 57.828125 L 21.460938 70.25 C 21.300781 70.339844 21.128906 70.359375 20.953125 70.308594 C 20.777344 70.261719 20.640625 70.160156 20.546875 70 C 20.449219 69.84375 20.421875 69.675781 20.464844 69.496094 C 20.503906 69.316406 20.601562 69.175781 20.753906 69.074219 L 37.035156 58.898438 L 19.964844 68.753906 C 19.804688 68.84375 19.632812 68.863281 19.457031 68.816406 C 19.277344 68.769531 19.140625 68.667969 19.046875 68.507812 C 18.949219 68.351562 18.921875 68.183594 18.964844 68 C 19.003906 67.820312 19.101562 67.679688 19.253906 67.578125 L 41.320312 53.636719 L 19.035156 66.5 C 18.871094 66.59375 18.699219 66.617188 18.519531 66.570312 C 18.335938 66.523438 18.199219 66.417969 18.101562 66.257812 C 18.003906 66.097656 17.980469 65.925781 18.023438 65.746094 C 18.066406 65.5625 18.167969 65.421875 18.328125 65.320312 L 39.160156 52.238281 L 19.035156 63.863281 C 18.871094 63.953125 18.703125 63.972656 18.523438 63.925781 C 18.34375 63.875 18.207031 63.773438 18.113281 63.613281 C 18.015625 63.453125 17.992188 63.28125 18.035156 63.101562 C 18.078125 62.921875 18.175781 62.78125 18.332031 62.679688 L 27.007812 57.355469 L 19.035156 61.960938 C 18.875 62.050781 18.703125 62.066406 18.527344 62.019531 C 18.351562 61.96875 18.214844 61.867188 18.121094 61.710938 C 18.027344 61.550781 18 61.382812 18.039062 61.203125 C 18.082031 61.027344 18.175781 60.886719 18.328125 60.785156 L 33.007812 51.6875 L 19.035156 59.75 C 18.871094 59.839844 18.703125 59.859375 18.523438 59.8125 C 18.34375 59.761719 18.207031 59.660156 18.113281 59.5 C 18.015625 59.339844 17.992188 59.171875 18.035156 58.988281 C 18.078125 58.808594 18.175781 58.667969 18.332031 58.570312 L 26.382812 53.628906 L 19.035156 57.871094 C 18.875 57.957031 18.703125 57.976562 18.527344 57.925781 C 18.351562 57.875 18.21875 57.773438 18.125 57.617188 C 18.03125 57.457031 18.003906 57.289062 18.042969 57.113281 C 18.085938 56.933594 18.179688 56.792969 18.332031 56.691406 L 28.113281 50.679688 L 19.035156 55.914062 C 18.875 56 18.703125 56.023438 18.527344 55.972656 C 18.347656 55.925781 18.210938 55.824219 18.117188 55.664062 C 18.019531 55.507812 17.992188 55.339844 18.03125 55.160156 C 18.074219 54.980469 18.171875 54.839844 18.324219 54.738281 L 41.335938 40.195312 L 19.035156 53.070312 C 18.875 53.15625 18.703125 53.175781 18.527344 53.125 C 18.351562 53.078125 18.21875 52.976562 18.121094 52.820312 C 18.027344 52.664062 18 52.496094 18.039062 52.316406 C 18.078125 52.136719 18.175781 51.996094 18.324219 51.894531 L 39.628906 38.433594 L 19.035156 50.324219 C 18.875 50.410156 18.703125 50.433594 18.527344 50.382812 C 18.347656 50.335938 18.210938 50.234375 18.117188 50.078125 C 18.019531 49.917969 17.992188 49.75 18.03125 49.570312 C 18.074219 49.390625 18.171875 49.25 18.324219 49.148438 L 38.113281 36.636719 L 19.035156 47.648438 C 18.871094 47.738281 18.699219 47.761719 18.519531 47.714844 C 18.335938 47.667969 18.199219 47.5625 18.101562 47.402344 C 18.007812 47.238281 17.980469 47.066406 18.027344 46.886719 C 18.070312 46.703125 18.175781 46.5625 18.332031 46.464844 L 19.695312 45.632812 L 19.035156 46.011719 C 18.875 46.101562 18.707031 46.121094 18.527344 46.074219 C 18.351562 46.027344 18.214844 45.925781 18.117188 45.769531 C 18.023438 45.613281 17.992188 45.445312 18.03125 45.265625 C 18.070312 45.085938 18.164062 44.945312 18.316406 44.839844 L 37.957031 32.042969 L 19.035156 42.96875 C 18.875 43.058594 18.703125 43.082031 18.523438 43.03125 C 18.34375 42.984375 18.207031 42.882812 18.109375 42.722656 C 18.015625 42.566406 17.988281 42.394531 18.027344 42.214844 C 18.070312 42.03125 18.167969 41.890625 18.324219 41.792969 L 25.871094 37.035156 L 19.035156 40.980469 C 18.875 41.066406 18.703125 41.085938 18.527344 41.039062 C 18.351562 40.988281 18.21875 40.886719 18.121094 40.730469 C 18.027344 40.574219 18 40.40625 18.039062 40.226562 C 18.078125 40.050781 18.175781 39.910156 18.324219 39.804688 L 22.726562 37.035156 L 19.035156 39.164062 C 18.875 39.257812 18.703125 39.28125 18.519531 39.234375 C 18.335938 39.191406 18.199219 39.085938 18.101562 38.925781 C 18.003906 38.765625 17.976562 38.59375 18.019531 38.414062 C 18.0625 38.230469 18.160156 38.089844 18.320312 37.988281 L 24.757812 33.863281 L 19.035156 37.164062 C 18.875 37.253906 18.703125 37.277344 18.527344 37.230469 C 18.347656 37.1875 18.207031 37.085938 18.109375 36.929688 C 18.011719 36.769531 17.984375 36.601562 18.023438 36.421875 C 18.0625 36.242188 18.15625 36.097656 18.308594 35.996094 L 27.46875 29.886719 L 19.035156 34.753906 C 18.875 34.84375 18.703125 34.871094 18.523438 34.824219 C 18.34375 34.78125 18.207031 34.679688 18.105469 34.523438 C 18.007812 34.363281 17.980469 34.195312 18.019531 34.011719 C 18.058594 33.832031 18.152344 33.691406 18.308594 33.585938 L 24.820312 29.199219 L 19.035156 32.539062 C 18.875 32.628906 18.703125 32.652344 18.527344 32.605469 C 18.347656 32.5625 18.207031 32.460938 18.109375 32.300781 C 18.011719 32.144531 17.984375 31.976562 18.023438 31.796875 C 18.0625 31.617188 18.15625 31.472656 18.308594 31.371094 L 20.359375 30.003906 L 19.035156 30.769531 C 18.878906 30.859375 18.710938 30.882812 18.535156 30.84375 C 18.355469 30.800781 18.21875 30.703125 18.117188 30.550781 C 18.015625 30.402344 17.984375 30.234375 18.015625 30.054688 C 18.046875 29.878906 18.132812 29.734375 18.277344 29.625 L 24.425781 25.007812 L 19.035156 28.121094 C 18.882812 28.207031 18.71875 28.234375 18.546875 28.195312 C 18.375 28.160156 18.234375 28.066406 18.132812 27.925781 C 18.03125 27.78125 17.988281 27.621094 18.011719 27.445312 C 18.03125 27.269531 18.105469 27.125 18.242188 27.007812 L 23.027344 22.839844 L 19.039062 25.144531 C 18.894531 25.226562 18.742188 25.25 18.582031 25.222656 C 18.417969 25.195312 18.28125 25.117188 18.175781 24.992188 C 18.066406 24.867188 18.011719 24.722656 18.011719 24.558594 C 18.007812 24.394531 18.058594 24.246094 18.160156 24.117188 L 20.773438 20.867188 C 20.625 20.855469 20.492188 20.796875 20.378906 20.699219 C 20.265625 20.601562 20.191406 20.480469 20.160156 20.332031 C 20.128906 20.1875 20.140625 20.042969 20.199219 19.90625 C 20.261719 19.769531 20.355469 19.664062 20.484375 19.585938 L 23.0625 18.101562 C 23.207031 18.015625 23.359375 17.988281 23.523438 18.015625 C 23.6875 18.042969 23.820312 18.121094 23.929688 18.246094 C 24.039062 18.371094 24.09375 18.519531 24.09375 18.683594 C 24.097656 18.847656 24.046875 18.996094 23.945312 19.125 L 21.539062 22.109375 L 28.488281 18.101562 C 28.640625 18.015625 28.804688 17.988281 28.976562 18.027344 C 29.148438 18.066406 29.285156 18.15625 29.386719 18.300781 C 29.488281 18.441406 29.53125 18.601562 29.511719 18.777344 C 29.492188 18.949219 29.414062 19.09375 29.285156 19.210938 L 24.5 23.382812 L 33.648438 18.101562 C 33.804688 18.007812 33.972656 17.984375 34.148438 18.027344 C 34.328125 18.066406 34.464844 18.164062 34.566406 18.316406 C 34.667969 18.46875 34.699219 18.632812 34.667969 18.8125 C 34.636719 18.992188 34.550781 19.136719 34.40625 19.246094 L 28.253906 23.859375 L 38.230469 18.101562 C 38.390625 18.011719 38.5625 17.988281 38.738281 18.035156 C 38.917969 18.078125 39.054688 18.179688 39.152344 18.335938 C 39.25 18.492188 39.277344 18.660156 39.242188 18.839844 C 39.203125 19.019531 39.109375 19.160156 38.957031 19.265625 L 36.914062 20.628906 L 41.292969 18.101562 C 41.453125 18.011719 41.621094 17.988281 41.800781 18.035156 C 41.976562 18.082031 42.113281 18.183594 42.210938 18.335938 C 42.304688 18.492188 42.335938 18.660156 42.300781 18.839844 C 42.265625 19.019531 42.171875 19.160156 42.019531 19.265625 L 35.503906 23.65625 L 45.128906 18.101562 C 45.289062 18.011719 45.457031 17.992188 45.632812 18.039062 C 45.8125 18.085938 45.945312 18.1875 46.042969 18.339844 C 46.140625 18.496094 46.167969 18.664062 46.132812 18.839844 C 46.097656 19.019531 46.003906 19.160156 45.855469 19.265625 L 36.691406 25.382812 L 49.3125 18.101562 C 49.472656 18.011719 49.644531 17.992188 49.820312 18.039062 C 50 18.085938 50.136719 18.1875 50.230469 18.34375 C 50.328125 18.5 50.355469 18.667969 50.316406 18.847656 C 50.277344 19.027344 50.179688 19.171875 50.027344 19.273438 L 43.601562 23.398438 L 52.773438 18.101562 C 52.933594 18.011719 53.105469 17.992188 53.28125 18.039062 C 53.460938 18.085938 53.597656 18.1875 53.691406 18.347656 C 53.789062 18.503906 53.816406 18.671875 53.777344 18.851562 C 53.734375 19.03125 53.636719 19.175781 53.484375 19.277344 L 49.101562 22.039062 L 55.921875 18.101562 C 56.085938 18.011719 56.253906 17.992188 56.433594 18.039062 C 56.609375 18.085938 56.746094 18.1875 56.84375 18.347656 C 56.9375 18.503906 56.964844 18.671875 56.925781 18.851562 C 56.886719 19.03125 56.789062 19.175781 56.632812 19.277344 L 49.070312 24.042969 L 59.363281 18.101562 C 59.527344 18.007812 59.695312 17.984375 59.875 18.03125 C 60.054688 18.078125 60.191406 18.179688 60.289062 18.335938 C 60.386719 18.496094 60.417969 18.664062 60.375 18.84375 C 60.335938 19.027344 60.238281 19.167969 60.085938 19.269531 L 40.449219 32.0625 L 64.636719 18.101562 C 64.800781 18.011719 64.96875 17.988281 65.148438 18.039062 C 65.328125 18.085938 65.464844 18.191406 65.558594 18.351562 C 65.65625 18.507812 65.679688 18.679688 65.636719 18.859375 C 65.59375 19.039062 65.496094 19.179688 65.339844 19.28125 L 63.996094 20.105469 L 66.972656 18.386719 C 67.136719 18.296875 67.304688 18.277344 67.484375 18.324219 C 67.660156 18.375 67.796875 18.476562 67.894531 18.632812 C 67.988281 18.792969 68.015625 18.960938 67.976562 19.140625 C 67.9375 19.320312 67.839844 19.460938 67.683594 19.5625 L 47.886719 32.074219 L 68.785156 20.003906 C 68.945312 19.914062 69.117188 19.890625 69.296875 19.941406 C 69.476562 19.988281 69.613281 20.089844 69.710938 20.25 C 69.804688 20.40625 69.832031 20.578125 69.792969 20.757812 C 69.75 20.941406 69.652344 21.082031 69.496094 21.179688 L 48.210938 34.640625 L 70.332031 21.871094 C 70.492188 21.777344 70.664062 21.757812 70.84375 21.804688 C 71.023438 21.851562 71.164062 21.953125 71.261719 22.113281 C 71.355469 22.273438 71.382812 22.441406 71.339844 22.625 C 71.300781 22.804688 71.199219 22.945312 71.042969 23.046875 L 48.015625 37.597656 L 70.515625 24.609375 C 70.675781 24.523438 70.847656 24.507812 71.023438 24.558594 C 71.199219 24.605469 71.332031 24.710938 71.425781 24.867188 C 71.519531 25.023438 71.546875 25.191406 71.507812 25.371094 C 71.464844 25.546875 71.371094 25.6875 71.21875 25.789062 L 61.4375 31.804688 L 70.511719 26.566406 C 70.675781 26.480469 70.84375 26.460938 71.019531 26.511719 C 71.195312 26.558594 71.328125 26.664062 71.421875 26.820312 C 71.515625 26.976562 71.542969 27.144531 71.503906 27.324219 C 71.464844 27.503906 71.367188 27.644531 71.214844 27.746094 L 63.199219 32.664062 L 70.515625 28.441406 C 70.675781 28.347656 70.847656 28.328125 71.027344 28.375 C 71.207031 28.421875 71.347656 28.527344 71.441406 28.6875 C 71.539062 28.847656 71.5625 29.015625 71.519531 29.199219 C 71.476562 29.378906 71.378906 29.519531 71.21875 29.621094 L 56.519531 38.726562 L 70.515625 30.652344 C 70.675781 30.566406 70.847656 30.546875 71.023438 30.597656 C 71.199219 30.648438 71.332031 30.75 71.425781 30.90625 C 71.519531 31.066406 71.546875 31.230469 71.507812 31.410156 C 71.464844 31.589844 71.371094 31.730469 71.21875 31.832031 L 62.542969 37.15625 L 70.519531 32.554688 C 70.679688 32.460938 70.851562 32.4375 71.035156 32.484375 C 71.214844 32.53125 71.355469 32.636719 71.449219 32.796875 C 71.546875 32.957031 71.574219 33.128906 71.53125 33.308594 C 71.484375 33.492188 71.382812 33.632812 71.226562 33.730469 L 50.414062 46.804688 L 70.515625 35.195312 C 70.675781 35.105469 70.847656 35.082031 71.027344 35.128906 C 71.207031 35.179688 71.34375 35.28125 71.441406 35.441406 C 71.535156 35.597656 71.5625 35.769531 71.519531 35.949219 C 71.480469 36.128906 71.378906 36.273438 71.222656 36.371094 L 49.144531 50.320312 L 70.515625 37.984375 C 70.675781 37.898438 70.84375 37.882812 71.019531 37.929688 C 71.195312 37.980469 71.332031 38.082031 71.425781 38.238281 C 71.519531 38.394531 71.546875 38.5625 71.507812 38.742188 C 71.46875 38.917969 71.371094 39.058594 71.222656 39.164062 L 54.949219 49.332031 L 70.515625 40.34375 C 70.675781 40.253906 70.847656 40.234375 71.023438 40.28125 C 71.203125 40.328125 71.339844 40.433594 71.433594 40.589844 C 71.53125 40.746094 71.558594 40.917969 71.515625 41.097656 C 71.476562 41.277344 71.378906 41.417969 71.226562 41.519531 L 51.625 53.96875 L 70.515625 43.0625 C 70.675781 42.972656 70.84375 42.953125 71.023438 43.003906 C 71.199219 43.050781 71.335938 43.152344 71.429688 43.308594 C 71.527344 43.464844 71.554688 43.632812 71.515625 43.8125 C 71.476562 43.992188 71.378906 44.132812 71.226562 44.234375 L 54.867188 54.675781 L 70.515625 45.636719 C 70.675781 45.542969 70.847656 45.519531 71.027344 45.5625 C 71.210938 45.609375 71.347656 45.710938 71.445312 45.871094 C 71.542969 46.03125 71.574219 46.199219 71.53125 46.382812 C 71.488281 46.5625 71.390625 46.707031 71.234375 46.808594 L 54.515625 57.71875 L 70.515625 48.488281 C 70.675781 48.394531 70.847656 48.371094 71.03125 48.417969 C 71.210938 48.464844 71.351562 48.566406 71.449219 48.730469 C 71.542969 48.890625 71.570312 49.0625 71.527344 49.242188 C 71.484375 49.425781 71.382812 49.566406 71.222656 49.664062 L 68.027344 51.667969 L 70.515625 50.234375 C 70.675781 50.148438 70.84375 50.128906 71.019531 50.175781 C 71.195312 50.226562 71.332031 50.328125 71.425781 50.484375 C 71.523438 50.636719 71.550781 50.804688 71.511719 50.984375 C 71.472656 51.164062 71.378906 51.304688 71.230469 51.40625 L 64.738281 55.574219 L 70.511719 52.238281 C 70.671875 52.152344 70.839844 52.132812 71.015625 52.179688 C 71.1875 52.226562 71.324219 52.328125 71.421875 52.480469 C 71.515625 52.636719 71.546875 52.800781 71.511719 52.980469 C 71.472656 53.15625 71.382812 53.296875 71.234375 53.402344 L 62.34375 59.316406 L 70.511719 54.601562 C 70.671875 54.515625 70.839844 54.496094 71.015625 54.542969 C 71.1875 54.589844 71.324219 54.691406 71.421875 54.84375 C 71.515625 55 71.546875 55.164062 71.511719 55.34375 C 71.472656 55.519531 71.382812 55.660156 71.234375 55.765625 L 65.792969 59.386719 L 70.511719 56.664062 C 70.671875 56.578125 70.835938 56.554688 71.011719 56.597656 C 71.1875 56.644531 71.324219 56.742188 71.421875 56.894531 C 71.519531 57.042969 71.550781 57.210938 71.519531 57.386719 C 71.488281 57.5625 71.398438 57.707031 71.257812 57.816406 L 63.640625 63.273438 L 70.515625 59.308594 C 70.675781 59.214844 70.84375 59.1875 71.023438 59.234375 C 71.203125 59.277344 71.34375 59.375 71.441406 59.53125 C 71.542969 59.6875 71.574219 59.855469 71.539062 60.035156 C 71.5 60.214844 71.40625 60.359375 71.257812 60.464844 L 68.160156 62.644531 L 70.515625 61.285156 C 70.671875 61.195312 70.839844 61.175781 71.015625 61.214844 C 71.191406 61.257812 71.328125 61.355469 71.429688 61.507812 C 71.527344 61.65625 71.5625 61.820312 71.53125 62 C 71.5 62.179688 71.414062 62.320312 71.269531 62.429688 L 68.625 64.40625 L 70.515625 63.3125 C 70.671875 63.222656 70.832031 63.199219 71.007812 63.238281 C 71.179688 63.273438 71.320312 63.367188 71.421875 63.511719 C 71.523438 63.65625 71.5625 63.816406 71.542969 63.992188 C 71.519531 64.167969 71.441406 64.316406 71.308594 64.429688 L 68.835938 66.535156 L 70.507812 65.570312 C 70.65625 65.488281 70.816406 65.464844 70.984375 65.5 C 71.148438 65.535156 71.285156 65.621094 71.390625 65.757812 C 71.492188 65.890625 71.539062 66.046875 71.527344 66.214844 C 71.519531 66.386719 71.453125 66.53125 71.332031 66.652344 L 69.152344 68.835938 C 69.238281 68.910156 69.304688 68.996094 69.351562 69.101562 C 69.394531 69.203125 69.414062 69.3125 69.40625 69.425781 C 69.394531 69.539062 69.359375 69.644531 69.300781 69.738281 C 69.242188 69.835938 69.160156 69.910156 69.0625 69.96875 L 66.488281 71.449219 C 66.339844 71.53125 66.179688 71.558594 66.011719 71.523438 C 65.847656 71.488281 65.710938 71.402344 65.605469 71.265625 C 65.503906 71.128906 65.457031 70.976562 65.46875 70.804688 C 65.476562 70.636719 65.542969 70.488281 65.664062 70.367188 L 66.636719 69.386719 L 63.070312 71.449219 C 62.914062 71.539062 62.753906 71.5625 62.578125 71.527344 C 62.40625 71.488281 62.269531 71.398438 62.164062 71.253906 C 62.0625 71.109375 62.023438 70.945312 62.042969 70.769531 C 62.066406 70.59375 62.144531 70.449219 62.277344 70.332031 L 64.742188 68.226562 L 59.15625 71.449219 C 59 71.539062 58.832031 71.5625 58.65625 71.519531 C 58.480469 71.476562 58.34375 71.378906 58.242188 71.230469 C 58.144531 71.078125 58.109375 70.914062 58.140625 70.734375 C 58.171875 70.558594 58.257812 70.414062 58.402344 70.304688 L 61.046875 68.332031 L 55.636719 71.449219 C 55.480469 71.539062 55.3125 71.5625 55.132812 71.519531 C 54.957031 71.472656 54.820312 71.375 54.722656 71.222656 C 54.625 71.066406 54.589844 70.902344 54.625 70.722656 C 54.660156 70.542969 54.75 70.402344 54.898438 70.292969 L 57.980469 68.121094 L 52.21875 71.449219 C 52.0625 71.539062 51.894531 71.5625 51.71875 71.519531 C 51.539062 71.476562 51.402344 71.378906 51.304688 71.222656 C 51.207031 71.070312 51.171875 70.90625 51.207031 70.726562 C 51.238281 70.546875 51.328125 70.402344 51.476562 70.296875 L 59.09375 64.835938 L 47.636719 71.449219 C 47.476562 71.535156 47.308594 71.554688 47.136719 71.507812 C 46.960938 71.460938 46.824219 71.359375 46.730469 71.207031 C 46.632812 71.050781 46.605469 70.886719 46.640625 70.707031 C 46.675781 70.53125 46.765625 70.390625 46.914062 70.285156 L 52.355469 66.667969 L 44.066406 71.449219 C 43.90625 71.535156 43.738281 71.554688 43.5625 71.507812 C 43.386719 71.460938 43.253906 71.359375 43.15625 71.207031 C 43.0625 71.050781 43.03125 70.886719 43.066406 70.707031 C 43.101562 70.53125 43.195312 70.390625 43.34375 70.285156 L 52.238281 64.371094 L 39.980469 71.449219 C 39.816406 71.539062 39.648438 71.558594 39.472656 71.511719 C 39.292969 71.464844 39.15625 71.363281 39.0625 71.207031 C 38.964844 71.046875 38.9375 70.878906 38.976562 70.699219 C 39.015625 70.519531 39.113281 70.378906 39.265625 70.277344 L 45.753906 66.113281 L 36.507812 71.449219 C 36.347656 71.539062 36.175781 71.558594 36 71.507812 C 35.824219 71.460938 35.6875 71.355469 35.59375 71.199219 C 35.496094 71.042969 35.46875 70.875 35.511719 70.695312 C 35.550781 70.515625 35.648438 70.375 35.800781 70.273438 L 39 68.269531 L 33.480469 71.449219 C 33.320312 71.539062 33.152344 71.558594 32.972656 71.511719 C 32.796875 71.464844 32.660156 71.363281 32.5625 71.207031 C 32.46875 71.050781 32.4375 70.882812 32.476562 70.703125 C 32.515625 70.523438 32.609375 70.382812 32.761719 70.28125 L 49.484375 59.363281 L 28.550781 71.449219 C 28.390625 71.539062 28.21875 71.558594 28.042969 71.507812 C 27.867188 71.460938 27.730469 71.359375 27.632812 71.203125 C 27.539062 71.046875 27.511719 70.878906 27.550781 70.699219 C 27.589844 70.519531 27.6875 70.378906 27.835938 70.277344 L 44.183594 59.851562 L 24.089844 71.449219 C 23.980469 71.511719 23.867188 71.546875 23.746094 71.546875 Z M 23.746094 71.546875 "/><path style=" stroke:none;fill-rule:nonzero;fill:#f7d33c;fill-opacity:1;" d="M 39.796875 66.023438 C 39.492188 66.023438 39.28125 65.882812 39.164062 65.601562 C 39.042969 65.324219 39.089844 65.074219 39.304688 64.855469 L 40.726562 63.398438 L 38.753906 64.535156 C 38.597656 64.625 38.4375 64.648438 38.261719 64.609375 C 38.089844 64.570312 37.953125 64.480469 37.851562 64.335938 C 37.75 64.191406 37.707031 64.03125 37.730469 63.855469 C 37.75 63.679688 37.828125 63.535156 37.964844 63.417969 L 42.429688 59.613281 L 39.433594 61.34375 C 39.277344 61.429688 39.113281 61.453125 38.9375 61.414062 C 38.761719 61.375 38.625 61.28125 38.523438 61.132812 C 38.421875 60.984375 38.386719 60.820312 38.410156 60.644531 C 38.4375 60.46875 38.519531 60.324219 38.660156 60.210938 L 45.351562 54.859375 L 40.3125 57.765625 C 40.152344 57.855469 39.984375 57.878906 39.808594 57.832031 C 39.632812 57.789062 39.496094 57.6875 39.398438 57.53125 C 39.300781 57.378906 39.269531 57.210938 39.304688 57.03125 C 39.339844 56.851562 39.433594 56.710938 39.582031 56.605469 L 40.542969 55.945312 C 40.386719 55.96875 40.242188 55.9375 40.105469 55.859375 C 39.96875 55.78125 39.871094 55.667969 39.8125 55.519531 C 39.753906 55.375 39.746094 55.226562 39.789062 55.074219 C 39.832031 54.921875 39.917969 54.800781 40.046875 54.707031 L 44.765625 51.40625 L 41.402344 53.347656 C 41.246094 53.4375 41.082031 53.464844 40.90625 53.421875 C 40.730469 53.382812 40.589844 53.285156 40.488281 53.136719 C 40.390625 52.984375 40.355469 52.820312 40.382812 52.644531 C 40.410156 52.464844 40.496094 52.320312 40.640625 52.210938 L 48.046875 46.527344 L 42.261719 49.863281 C 42.105469 49.953125 41.941406 49.976562 41.765625 49.9375 C 41.589844 49.894531 41.453125 49.800781 41.351562 49.652344 C 41.25 49.503906 41.210938 49.339844 41.242188 49.160156 C 41.269531 48.984375 41.351562 48.839844 41.496094 48.726562 L 44.785156 46.148438 L 39.035156 49.464844 C 38.878906 49.554688 38.714844 49.578125 38.542969 49.539062 C 38.371094 49.496094 38.230469 49.402344 38.132812 49.257812 C 38.03125 49.109375 37.992188 48.949219 38.015625 48.773438 C 38.042969 48.597656 38.121094 48.449219 38.261719 48.335938 L 41.542969 45.6875 L 34.996094 49.464844 C 34.839844 49.554688 34.675781 49.582031 34.5 49.539062 C 34.324219 49.5 34.1875 49.40625 34.085938 49.257812 C 33.984375 49.105469 33.949219 48.945312 33.976562 48.765625 C 34.003906 48.589844 34.085938 48.445312 34.226562 48.332031 L 40.277344 43.546875 L 31.507812 48.613281 C 31.347656 48.703125 31.179688 48.726562 31.003906 48.6875 C 30.824219 48.644531 30.6875 48.546875 30.585938 48.394531 C 30.488281 48.242188 30.453125 48.074219 30.484375 47.894531 C 30.519531 47.714844 30.609375 47.570312 30.753906 47.464844 L 38.457031 41.808594 L 33.917969 44.429688 C 33.757812 44.519531 33.589844 44.542969 33.410156 44.5 C 33.230469 44.457031 33.09375 44.355469 32.996094 44.199219 C 32.898438 44.042969 32.867188 43.875 32.902344 43.695312 C 32.941406 43.515625 33.035156 43.371094 33.183594 43.269531 L 35.933594 41.378906 C 35.621094 41.351562 35.421875 41.183594 35.335938 40.878906 C 35.25 40.574219 35.335938 40.328125 35.589844 40.140625 L 39.960938 36.914062 L 39.550781 37.148438 C 39.390625 37.238281 39.222656 37.265625 39.046875 37.222656 C 38.867188 37.179688 38.730469 37.082031 38.628906 36.925781 C 38.53125 36.773438 38.5 36.605469 38.53125 36.425781 C 38.566406 36.246094 38.65625 36.105469 38.804688 35.996094 L 41.292969 34.1875 C 41.152344 34.136719 41.039062 34.046875 40.957031 33.921875 C 40.855469 33.769531 40.820312 33.605469 40.851562 33.429688 C 40.878906 33.25 40.96875 33.105469 41.109375 32.996094 L 43.804688 30.933594 C 43.699219 30.894531 43.605469 30.828125 43.527344 30.742188 C 43.453125 30.65625 43.402344 30.558594 43.375 30.445312 C 43.347656 30.332031 43.347656 30.222656 43.378906 30.109375 C 43.410156 30 43.464844 29.898438 43.542969 29.816406 L 47.398438 25.714844 C 47.371094 25.683594 47.347656 25.648438 47.328125 25.613281 C 47.234375 25.449219 47.210938 25.273438 47.261719 25.089844 C 47.308594 24.90625 47.414062 24.769531 47.578125 24.675781 L 49.410156 23.617188 C 49.558594 23.53125 49.714844 23.503906 49.882812 23.535156 C 50.050781 23.566406 50.1875 23.652344 50.292969 23.785156 C 50.398438 23.917969 50.449219 24.070312 50.441406 24.242188 C 50.433594 24.410156 50.371094 24.558594 50.253906 24.683594 L 47.738281 27.363281 L 50.753906 25.621094 C 50.910156 25.53125 51.078125 25.507812 51.253906 25.550781 C 51.429688 25.589844 51.566406 25.6875 51.664062 25.835938 C 51.765625 25.988281 51.800781 26.152344 51.773438 26.328125 C 51.742188 26.507812 51.65625 26.652344 51.515625 26.761719 L 50.3125 27.683594 C 50.472656 27.613281 50.636719 27.605469 50.804688 27.664062 C 50.96875 27.71875 51.097656 27.824219 51.183594 27.976562 C 51.269531 28.128906 51.292969 28.292969 51.253906 28.464844 C 51.21875 28.636719 51.125 28.773438 50.984375 28.875 L 50.007812 29.578125 C 50.296875 29.53125 50.519531 29.632812 50.675781 29.882812 C 50.777344 30.035156 50.8125 30.199219 50.78125 30.378906 C 50.746094 30.558594 50.660156 30.703125 50.511719 30.8125 L 46.148438 34.042969 L 49.101562 32.339844 C 49.261719 32.25 49.429688 32.226562 49.609375 32.269531 C 49.785156 32.3125 49.925781 32.414062 50.023438 32.570312 C 50.121094 32.726562 50.152344 32.894531 50.117188 33.074219 C 50.078125 33.253906 49.984375 33.398438 49.832031 33.5 L 48.429688 34.464844 L 48.601562 34.367188 C 48.757812 34.273438 48.925781 34.25 49.105469 34.292969 C 49.28125 34.335938 49.421875 34.433594 49.519531 34.585938 C 49.621094 34.738281 49.652344 34.90625 49.621094 35.085938 C 49.589844 35.265625 49.5 35.40625 49.351562 35.515625 L 41.652344 41.167969 L 47.800781 37.625 C 47.957031 37.535156 48.121094 37.511719 48.296875 37.550781 C 48.472656 37.59375 48.609375 37.6875 48.710938 37.835938 C 48.8125 37.984375 48.847656 38.148438 48.820312 38.324219 C 48.792969 38.503906 48.710938 38.648438 48.570312 38.757812 L 42.507812 43.539062 L 48.5 40.078125 C 48.65625 39.992188 48.820312 39.96875 48.992188 40.007812 C 49.167969 40.046875 49.304688 40.140625 49.40625 40.289062 C 49.507812 40.433594 49.542969 40.597656 49.519531 40.773438 C 49.496094 40.949219 49.414062 41.09375 49.277344 41.207031 L 45.992188 43.859375 L 52.539062 40.078125 C 52.695312 39.988281 52.863281 39.964844 53.039062 40.003906 C 53.214844 40.042969 53.351562 40.140625 53.453125 40.289062 C 53.554688 40.4375 53.589844 40.601562 53.5625 40.78125 C 53.535156 40.957031 53.449219 41.101562 53.308594 41.214844 L 50.023438 43.785156 L 56.449219 40.074219 C 56.605469 39.984375 56.769531 39.957031 56.945312 40 C 57.121094 40.039062 57.261719 40.136719 57.359375 40.285156 C 57.460938 40.4375 57.496094 40.601562 57.46875 40.777344 C 57.4375 40.957031 57.351562 41.101562 57.210938 41.210938 L 49.804688 46.90625 L 57.832031 42.269531 C 57.992188 42.183594 58.160156 42.160156 58.335938 42.207031 C 58.511719 42.25 58.648438 42.351562 58.746094 42.503906 C 58.84375 42.65625 58.875 42.824219 58.84375 43 C 58.808594 43.179688 58.71875 43.320312 58.570312 43.429688 L 53.847656 46.730469 L 54.820312 46.167969 C 54.980469 46.082031 55.148438 46.0625 55.320312 46.109375 C 55.496094 46.152344 55.632812 46.253906 55.726562 46.40625 C 55.824219 46.558594 55.855469 46.726562 55.820312 46.902344 C 55.789062 47.078125 55.699219 47.222656 55.550781 47.328125 L 53.042969 49.050781 C 53.214844 49.089844 53.351562 49.183594 53.457031 49.328125 C 53.558594 49.476562 53.59375 49.636719 53.566406 49.816406 C 53.542969 49.992188 53.457031 50.140625 53.316406 50.25 L 46.621094 55.605469 L 48.265625 54.65625 C 48.417969 54.566406 48.582031 54.542969 48.757812 54.582031 C 48.929688 54.617188 49.070312 54.710938 49.171875 54.855469 C 49.273438 55 49.3125 55.164062 49.292969 55.339844 C 49.269531 55.515625 49.191406 55.660156 49.054688 55.777344 L 44.5 59.65625 C 44.796875 59.574219 45.042969 59.652344 45.234375 59.894531 C 45.339844 60.03125 45.386719 60.183594 45.375 60.355469 C 45.367188 60.523438 45.300781 60.671875 45.183594 60.796875 L 42.183594 63.875 C 42.195312 63.894531 42.210938 63.914062 42.222656 63.9375 C 42.316406 64.101562 42.339844 64.273438 42.292969 64.457031 C 42.242188 64.640625 42.136719 64.78125 41.972656 64.875 L 40.144531 65.929688 C 40.035156 65.992188 39.921875 66.023438 39.796875 66.023438 Z M 39.796875 66.023438 "/><path style=" stroke:none;fill-rule:nonzero;fill:#262626;fill-opacity:1;" d="M 53.28125 17.84375 C 44.195312 17.84375 34.953125 17.328125 25.882812 17.84375 C 21.570312 18.089844 18.542969 19.65625 18.003906 24.34375 C 16.929688 33.695312 18.003906 43.777344 18.003906 53.191406 C 18.003906 59.515625 16.40625 65.933594 21.140625 70.667969 C 26.890625 73.4375 35.265625 71.640625 41.5 71.703125 C 81.496094 73.898438 69.675781 71.566406 71.542969 34.515625 C 73.351562 18.148438 68.554688 16.375 53.28125 17.84375 Z M 65.300781 70.09375 C 58.328125 71.46875 49.707031 70.09375 42.613281 70.09375 C 36.425781 70.09375 27.617188 71.710938 21.738281 69.386719 C 17.90625 65.398438 19.292969 59.523438 19.292969 54.226562 L 19.292969 30.070312 C 19.292969 24.882812 18.929688 20.035156 25.464844 19.453125 C 32.496094 18.832031 39.875 19.453125 46.929688 19.453125 C 52.726562 19.453125 60.046875 18.207031 65.722656 19.453125 C 71.832031 20.796875 70.253906 27.660156 70.253906 32.335938 L 70.253906 57.359375 C 70.253906 62.203125 71.644531 68.84375 65.300781 70.09375 Z M 65.300781 70.09375 "/><path style=" stroke:none;fill-rule:nonzero;fill:#262626;fill-opacity:1;" d="M 50.414062 40.015625 C 49.746094 40.050781 49.082031 40.015625 48.421875 39.90625 C 48.800781 36.882812 55.347656 21.84375 48.703125 23.695312 C 45.628906 24.507812 42.445312 31.050781 40.679688 33.332031 L 34.402344 41.476562 C 25.496094 50.855469 32.996094 49.433594 41.035156 49.539062 C 40.886719 52.601562 33.726562 70.351562 42.136719 64.929688 L 51.304688 53.0625 C 56.859375 47.167969 66.078125 37.859375 50.414062 40.015625 Z M 53 48.390625 L 40.675781 64.339844 C 38.511719 65.597656 40.964844 56.433594 41 56.292969 C 40.972656 54.757812 44.027344 48.34375 42.003906 48.300781 C 39.765625 48.484375 37.523438 48.484375 35.285156 48.300781 C 32.84375 47.875 31.996094 48.546875 32.792969 46.003906 C 35.582031 41.457031 39.859375 37.398438 42.90625 32.921875 C 44.320312 31.097656 45.738281 28.410156 47.527344 26.945312 C 48.828125 25.878906 49.453125 23.921875 50.121094 26.921875 C 50.839844 30.132812 47.5625 37.15625 46.730469 40.480469 C 46.609375 40.972656 47.09375 41.257812 47.53125 41.257812 C 56.140625 40.511719 61.414062 39.566406 53.007812 48.390625 Z M 53 48.390625 "/><path style=" stroke:none;fill-rule:nonzero;fill:#262626;fill-opacity:1;" d="M 84.511719 41.269531 C 88.585938 39.277344 78.066406 40.21875 77.078125 40.03125 L 77.078125 33.203125 L 84.765625 33.203125 C 85.644531 33.203125 85.332031 31.59375 84.542969 31.59375 L 77.074219 31.59375 L 77.074219 24.910156 L 84.476562 24.910156 C 85.253906 24.910156 85.777344 23.398438 84.820312 23.398438 L 77.074219 23.398438 C 77.738281 16.886719 71.8125 12.96875 66.210938 12.554688 L 66.210938 4.78125 C 63.699219 1.914062 64.785156 10.5625 64.578125 12.410156 C 62.320312 12.335938 60.0625 12.398438 57.800781 12.378906 L 57.800781 4.730469 C 57.800781 3.652344 56.488281 4.21875 56.488281 5.070312 L 56.488281 12.378906 L 49.671875 12.378906 L 49.671875 4.804688 C 49.671875 3.839844 48.128906 4.214844 48.128906 4.996094 L 48.128906 12.378906 L 41.265625 12.378906 L 41.265625 4.839844 C 39.339844 1.394531 40.195312 11.429688 40.027344 12.378906 L 33.226562 12.378906 C 33.015625 10.464844 34.113281 1.808594 31.574219 4.832031 L 31.574219 12.378906 C 29.332031 12.390625 26.867188 12.328125 24.921875 12.410156 L 24.921875 4.8125 C 24.921875 3.847656 23.375 4.210938 23.375 4.988281 L 23.375 12.519531 C 22.671875 12.585938 21.984375 12.710938 21.300781 12.894531 C 20.621094 13.078125 19.960938 13.316406 19.320312 13.609375 C 18.679688 13.902344 18.070312 14.246094 17.488281 14.644531 C 16.90625 15.039062 16.359375 15.480469 15.851562 15.96875 C 15.339844 16.453125 14.875 16.980469 14.457031 17.546875 C 14.035156 18.109375 13.664062 18.707031 13.34375 19.332031 C 13.023438 19.960938 12.753906 20.609375 12.542969 21.28125 C 12.332031 21.953125 12.175781 22.636719 12.078125 23.335938 L 5.023438 23.335938 C 4.199219 23.335938 3.972656 24.964844 4.777344 24.964844 L 11.914062 24.964844 C 11.808594 27.175781 11.851562 29.386719 12.039062 31.59375 L 4.804688 31.59375 C 3.921875 31.59375 4.203125 33.207031 4.996094 33.207031 L 12.167969 33.207031 C 12.40625 35.46875 12.5 37.738281 12.453125 40.011719 L 5.125 40.011719 C 4.292969 40.011719 3.597656 41.289062 4.671875 41.289062 L 12.433594 41.289062 C 12.382812 43.519531 12.296875 45.789062 12.191406 48.074219 L 4.875 48.074219 C 1.683594 50.644531 10.714844 49.5 12.125 49.726562 C 12.03125 51.941406 11.953125 54.164062 11.921875 56.378906 L 4.984375 56.378906 C 4.207031 56.378906 3.859375 57.925781 4.816406 57.925781 L 11.914062 57.925781 C 11.914062 60.230469 11.972656 62.519531 12.15625 64.761719 L 4.671875 64.761719 C 3.597656 64.761719 4.296875 66.035156 5.128906 66.035156 L 12.289062 66.035156 C 12.191406 71.960938 17.675781 76.941406 23.367188 77.15625 L 23.367188 84.871094 C 23.367188 85.726562 24.933594 85.214844 24.933594 84.429688 L 24.933594 77.1875 C 27.203125 77.226562 29.46875 77.253906 31.75 77.261719 L 31.75 84.835938 C 31.75 85.914062 33.050781 85.3125 33.050781 84.464844 L 33.050781 77.257812 C 35.308594 77.257812 37.566406 77.253906 39.828125 77.25 L 39.828125 84.710938 C 42.351562 87.738281 41.265625 79.199219 41.476562 77.238281 L 48.121094 77.199219 L 48.121094 84.859375 C 48.121094 85.714844 49.691406 85.230469 49.691406 84.445312 L 49.691406 77.191406 C 51.960938 77.191406 54.226562 77.148438 56.496094 77.191406 L 56.496094 84.804688 C 56.496094 85.882812 57.816406 85.355469 57.816406 84.5 L 57.816406 77.226562 C 60.054688 77.304688 62.351562 77.421875 64.582031 77.347656 C 64.773438 79.492188 63.726562 87.710938 66.230469 84.695312 L 66.230469 77.25 C 71.785156 76.976562 76.214844 71.476562 77.152344 66.210938 L 84.625 66.210938 C 88.015625 63.597656 78.625 64.851562 77.382812 64.589844 C 77.566406 62.316406 77.570312 60.039062 77.398438 57.765625 C 78.3125 57.609375 88.417969 58.453125 84.597656 56.527344 L 77.324219 56.527344 C 77.160156 54.15625 77.050781 51.992188 77.082031 49.71875 C 78.335938 49.457031 87.992188 50.714844 84.65625 48.070312 L 77.074219 48.070312 L 77.074219 41.269531 Z M 76 64.8125 C 75.738281 65.15625 75.695312 65.519531 75.875 65.914062 C 75.660156 73.3125 69.097656 75.8125 62.878906 75.628906 L 34.417969 75.628906 C 26.203125 76.191406 15.324219 76.433594 13.636719 65.992188 C 14.125 65.847656 13.933594 65.273438 13.5 64.960938 C 13.3125 62.535156 13.328125 60.109375 13.550781 57.6875 C 13.707031 57.53125 13.792969 57.34375 13.808594 57.125 C 13.820312 56.902344 13.765625 56.707031 13.632812 56.527344 C 14.023438 51.128906 13.757812 46.066406 13.832031 40.714844 C 13.96875 40.53125 13.96875 40.347656 13.832031 40.164062 C 14.324219 30.78125 10.386719 14.347656 24.261719 13.917969 L 55.140625 13.917969 C 79.589844 12.070312 75.511719 21.160156 75.726562 40.488281 C 75.582031 40.6875 75.582031 40.882812 75.726562 41.082031 C 75.710938 43.523438 75.773438 45.914062 75.890625 48.433594 C 75.726562 48.785156 75.742188 49.128906 75.9375 49.460938 C 76.046875 51.8125 76.15625 54.183594 76.210938 56.550781 C 75.410156 56.648438 75.484375 57.566406 76.238281 57.730469 C 76.285156 60.09375 76.203125 62.457031 76 64.8125 Z M 76 64.8125 "/><g style="fill:#4466b9;fill-opacity:1;"><g transform="translate(92.923691, 38.770146)"><path style="stroke:none" d="M 7.359375 0.25 C 4.984375 0.25 3.269531 -0.335938 2.21875 -1.515625 C 1.164062 -2.691406 0.640625 -4.59375 0.640625 -7.21875 L 0.640625 -9.765625 L 5.78125 -9.765625 L 5.78125 -6.515625 C 5.78125 -5.210938 6.195312 -4.5625 7.03125 -4.5625 C 7.5 -4.5625 7.820312 -4.695312 8 -4.96875 C 8.1875 -5.25 8.28125 -5.710938 8.28125 -6.359375 C 8.28125 -7.210938 8.175781 -7.914062 7.96875 -8.46875 C 7.769531 -9.03125 7.515625 -9.5 7.203125 -9.875 C 6.890625 -10.25 6.328125 -10.832031 5.515625 -11.625 L 3.25 -13.875 C 1.507812 -15.582031 0.640625 -17.472656 0.640625 -19.546875 C 0.640625 -21.773438 1.148438 -23.472656 2.171875 -24.640625 C 3.203125 -25.804688 4.703125 -26.390625 6.671875 -26.390625 C 9.023438 -26.390625 10.71875 -25.765625 11.75 -24.515625 C 12.78125 -23.265625 13.296875 -21.3125 13.296875 -18.65625 L 7.96875 -18.65625 L 7.9375 -20.453125 C 7.9375 -20.796875 7.835938 -21.066406 7.640625 -21.265625 C 7.453125 -21.472656 7.1875 -21.578125 6.84375 -21.578125 C 6.4375 -21.578125 6.128906 -21.460938 5.921875 -21.234375 C 5.722656 -21.015625 5.625 -20.710938 5.625 -20.328125 C 5.625 -19.472656 6.113281 -18.59375 7.09375 -17.6875 L 10.140625 -14.765625 C 10.847656 -14.078125 11.429688 -13.421875 11.890625 -12.796875 C 12.359375 -12.179688 12.734375 -11.453125 13.015625 -10.609375 C 13.304688 -9.765625 13.453125 -8.765625 13.453125 -7.609375 C 13.453125 -5.035156 12.976562 -3.082031 12.03125 -1.75 C 11.09375 -0.414062 9.535156 0.25 7.359375 0.25 Z M 7.359375 0.25 "/></g></g><g style="fill:#4466b9;fill-opacity:1;"><g transform="translate(106.951212, 38.770146)"><path style="stroke:none" d="M 1.15625 0 L 1.15625 -26.140625 L 11.625 -26.140625 L 11.625 -21.09375 L 6.484375 -21.09375 L 6.484375 -16.015625 L 11.40625 -16.015625 L 11.40625 -11.078125 L 6.484375 -11.078125 L 6.484375 -5.078125 L 11.96875 -5.078125 L 11.96875 0 Z M 1.15625 0 "/></g></g><g style="fill:#4466b9;fill-opacity:1;"><g transform="translate(119.487731, 38.770146)"><path style="stroke:none" d="M 1.15625 0 L 1.15625 -26.140625 L 11.625 -26.140625 L 11.625 -21.0625 L 6.421875 -21.0625 L 6.421875 -16.890625 L 11.359375 -16.890625 L 11.359375 -11.875 L 6.421875 -11.875 L 6.421875 0 Z M 1.15625 0 "/></g></g><g style="fill:#4466b9;fill-opacity:1;"><g transform="translate(131.628688, 38.770146)"><path style="stroke:none" d="M 1.15625 0 L 1.15625 -26.140625 L 11.625 -26.140625 L 11.625 -21.09375 L 6.484375 -21.09375 L 6.484375 -16.015625 L 11.40625 -16.015625 L 11.40625 -11.078125 L 6.484375 -11.078125 L 6.484375 -5.078125 L 11.96875 -5.078125 L 11.96875 0 Z M 1.15625 0 "/></g></g><g style="fill:#4466b9;fill-opacity:1;"><g transform="translate(144.165207, 38.770146)"><path style="stroke:none" d="M 1.15625 -26.140625 L 9.1875 -26.140625 C 10.46875 -26.140625 11.457031 -25.847656 12.15625 -25.265625 C 12.851562 -24.691406 13.320312 -23.882812 13.5625 -22.84375 C 13.8125 -21.800781 13.9375 -20.46875 13.9375 -18.84375 C 13.9375 -17.363281 13.742188 -16.207031 13.359375 -15.375 C 12.972656 -14.539062 12.304688 -13.960938 11.359375 -13.640625 C 12.148438 -13.472656 12.722656 -13.070312 13.078125 -12.4375 C 13.429688 -11.8125 13.609375 -10.960938 13.609375 -9.890625 L 13.546875 0 L 8.4375 0 L 8.4375 -10.234375 C 8.4375 -10.960938 8.289062 -11.425781 8 -11.625 C 7.71875 -11.832031 7.203125 -11.9375 6.453125 -11.9375 L 6.453125 0 L 1.15625 0 Z M 7.734375 -16.46875 C 8.460938 -16.46875 8.828125 -17.257812 8.828125 -18.84375 C 8.828125 -19.53125 8.796875 -20.046875 8.734375 -20.390625 C 8.671875 -20.734375 8.554688 -20.972656 8.390625 -21.109375 C 8.234375 -21.242188 8.003906 -21.3125 7.703125 -21.3125 L 6.484375 -21.3125 L 6.484375 -16.46875 Z M 7.734375 -16.46875 "/></g></g><g style="fill:#4466b9;fill-opacity:1;"><g transform="translate(158.67958, 38.770146)"><path style="stroke:none" d="M 0.90625 0 L 0.90625 -26.140625 L 5.96875 -26.140625 L 5.96875 0 Z M 0.78125 -27.515625 L 0.78125 -31.953125 L 6.109375 -31.953125 L 6.109375 -27.515625 Z M 0.78125 -27.515625 "/></g></g><g style="fill:#4466b9;fill-opacity:1;"><g transform="translate(165.586839, 38.770146)"><path style="stroke:none" d="M 1.15625 0 L 1.15625 -26.140625 L 6.359375 -26.140625 L 6.359375 -16.796875 L 8.828125 -16.796875 L 8.828125 -26.140625 L 14.03125 -26.140625 L 14.03125 0 L 8.828125 0 L 8.828125 -11.875 L 6.359375 -11.875 L 6.359375 0 Z M 1.15625 0 "/></g></g><g style="fill:#4466b9;fill-opacity:1;"><g transform="translate(180.770635, 38.770146)"><path style="stroke:none" d="M 0.90625 0 L 0.90625 -26.140625 L 5.96875 -26.140625 L 5.96875 0 Z M 0.78125 -27.515625 L 0.78125 -31.953125 L 6.109375 -31.953125 L 6.109375 -27.515625 Z M 0.78125 -27.515625 "/></g></g><g style="fill:#4466b9;fill-opacity:1;"><g transform="translate(187.677894, 38.770146)"><path style="stroke:none" d="M 7.359375 0.25 C 4.984375 0.25 3.269531 -0.335938 2.21875 -1.515625 C 1.164062 -2.691406 0.640625 -4.59375 0.640625 -7.21875 L 0.640625 -9.765625 L 5.78125 -9.765625 L 5.78125 -6.515625 C 5.78125 -5.210938 6.195312 -4.5625 7.03125 -4.5625 C 7.5 -4.5625 7.820312 -4.695312 8 -4.96875 C 8.1875 -5.25 8.28125 -5.710938 8.28125 -6.359375 C 8.28125 -7.210938 8.175781 -7.914062 7.96875 -8.46875 C 7.769531 -9.03125 7.515625 -9.5 7.203125 -9.875 C 6.890625 -10.25 6.328125 -10.832031 5.515625 -11.625 L 3.25 -13.875 C 1.507812 -15.582031 0.640625 -17.472656 0.640625 -19.546875 C 0.640625 -21.773438 1.148438 -23.472656 2.171875 -24.640625 C 3.203125 -25.804688 4.703125 -26.390625 6.671875 -26.390625 C 9.023438 -26.390625 10.71875 -25.765625 11.75 -24.515625 C 12.78125 -23.265625 13.296875 -21.3125 13.296875 -18.65625 L 7.96875 -18.65625 L 7.9375 -20.453125 C 7.9375 -20.796875 7.835938 -21.066406 7.640625 -21.265625 C 7.453125 -21.472656 7.1875 -21.578125 6.84375 -21.578125 C 6.4375 -21.578125 6.128906 -21.460938 5.921875 -21.234375 C 5.722656 -21.015625 5.625 -20.710938 5.625 -20.328125 C 5.625 -19.472656 6.113281 -18.59375 7.09375 -17.6875 L 10.140625 -14.765625 C 10.847656 -14.078125 11.429688 -13.421875 11.890625 -12.796875 C 12.359375 -12.179688 12.734375 -11.453125 13.015625 -10.609375 C 13.304688 -9.765625 13.453125 -8.765625 13.453125 -7.609375 C 13.453125 -5.035156 12.976562 -3.082031 12.03125 -1.75 C 11.09375 -0.414062 9.535156 0.25 7.359375 0.25 Z M 7.359375 0.25 "/></g></g><g style="fill:#4466b9;fill-opacity:1;"><g transform="translate(201.705415, 38.770146)"><path style="stroke:none" d="M 0.453125 0 L 2.984375 -26.140625 L 11.84375 -26.140625 L 14.34375 0 L 9.375 0 L 9.015625 -4.234375 L 5.84375 -4.234375 L 5.546875 0 Z M 6.234375 -8.40625 L 8.609375 -8.40625 L 7.453125 -21.703125 L 7.21875 -21.703125 Z M 6.234375 -8.40625 "/></g></g><g style="fill:#4466b9;fill-opacity:1;"><g transform="translate(216.463216, 38.770146)"><path style="stroke:none" d="M 1.15625 -26.140625 L 9.1875 -26.140625 C 10.46875 -26.140625 11.457031 -25.847656 12.15625 -25.265625 C 12.851562 -24.691406 13.320312 -23.882812 13.5625 -22.84375 C 13.8125 -21.800781 13.9375 -20.46875 13.9375 -18.84375 C 13.9375 -17.363281 13.742188 -16.207031 13.359375 -15.375 C 12.972656 -14.539062 12.304688 -13.960938 11.359375 -13.640625 C 12.148438 -13.472656 12.722656 -13.070312 13.078125 -12.4375 C 13.429688 -11.8125 13.609375 -10.960938 13.609375 -9.890625 L 13.546875 0 L 8.4375 0 L 8.4375 -10.234375 C 8.4375 -10.960938 8.289062 -11.425781 8 -11.625 C 7.71875 -11.832031 7.203125 -11.9375 6.453125 -11.9375 L 6.453125 0 L 1.15625 0 Z M 7.734375 -16.46875 C 8.460938 -16.46875 8.828125 -17.257812 8.828125 -18.84375 C 8.828125 -19.53125 8.796875 -20.046875 8.734375 -20.390625 C 8.671875 -20.734375 8.554688 -20.972656 8.390625 -21.109375 C 8.234375 -21.242188 8.003906 -21.3125 7.703125 -21.3125 L 6.484375 -21.3125 L 6.484375 -16.46875 Z M 7.734375 -16.46875 "/></g></g><g style="fill:#527ac6;fill-opacity:1;"><g transform="translate(91.593944, 76.835017)"><path style="stroke:none" d="M 14.078125 -23.453125 C 14.078125 -23.210938 13.957031 -23.09375 13.71875 -23.09375 L 5.3125 -23.09375 C 5.21875 -23.09375 5.171875 -23.039062 5.171875 -22.9375 L 5.171875 -13.96875 C 5.171875 -13.875 5.21875 -13.828125 5.3125 -13.828125 L 10.609375 -13.828125 C 10.847656 -13.828125 10.96875 -13.707031 10.96875 -13.46875 L 10.96875 -11.90625 C 10.96875 -11.664062 10.847656 -11.546875 10.609375 -11.546875 L 5.3125 -11.546875 C 5.21875 -11.546875 5.171875 -11.5 5.171875 -11.40625 L 5.171875 -2.390625 C 5.171875 -2.296875 5.21875 -2.25 5.3125 -2.25 L 13.71875 -2.25 C 13.957031 -2.25 14.078125 -2.125 14.078125 -1.875 L 14.078125 -0.359375 C 14.078125 -0.117188 13.957031 0 13.71875 0 L 2.96875 0 C 2.726562 0 2.609375 -0.117188 2.609375 -0.359375 L 2.609375 -24.96875 C 2.609375 -25.207031 2.726562 -25.328125 2.96875 -25.328125 L 13.71875 -25.328125 C 13.957031 -25.328125 14.078125 -25.207031 14.078125 -24.96875 Z M 14.078125 -23.453125 "/></g></g><g style="fill:#527ac6;fill-opacity:1;"><g transform="translate(107.118693, 76.835017)"><path style="stroke:none" d="M 2.96875 0 C 2.726562 0 2.609375 -0.117188 2.609375 -0.359375 L 2.609375 -24.96875 C 2.609375 -25.207031 2.726562 -25.328125 2.96875 -25.328125 L 4.8125 -25.328125 C 5.050781 -25.328125 5.171875 -25.207031 5.171875 -24.96875 L 5.171875 -2.390625 C 5.171875 -2.296875 5.21875 -2.25 5.3125 -2.25 L 13.609375 -2.25 C 13.847656 -2.25 13.96875 -2.125 13.96875 -1.875 L 13.96875 -0.359375 C 13.96875 -0.117188 13.847656 0 13.609375 0 Z M 2.96875 0 "/></g></g><g style="fill:#527ac6;fill-opacity:1;"><g transform="translate(121.449233, 76.835017)"><path style="stroke:none" d="M 14.078125 -23.453125 C 14.078125 -23.210938 13.957031 -23.09375 13.71875 -23.09375 L 5.3125 -23.09375 C 5.21875 -23.09375 5.171875 -23.039062 5.171875 -22.9375 L 5.171875 -13.96875 C 5.171875 -13.875 5.21875 -13.828125 5.3125 -13.828125 L 10.609375 -13.828125 C 10.847656 -13.828125 10.96875 -13.707031 10.96875 -13.46875 L 10.96875 -11.90625 C 10.96875 -11.664062 10.847656 -11.546875 10.609375 -11.546875 L 5.3125 -11.546875 C 5.21875 -11.546875 5.171875 -11.5 5.171875 -11.40625 L 5.171875 -2.390625 C 5.171875 -2.296875 5.21875 -2.25 5.3125 -2.25 L 13.71875 -2.25 C 13.957031 -2.25 14.078125 -2.125 14.078125 -1.875 L 14.078125 -0.359375 C 14.078125 -0.117188 13.957031 0 13.71875 0 L 2.96875 0 C 2.726562 0 2.609375 -0.117188 2.609375 -0.359375 L 2.609375 -24.96875 C 2.609375 -25.207031 2.726562 -25.328125 2.96875 -25.328125 L 13.71875 -25.328125 C 13.957031 -25.328125 14.078125 -25.207031 14.078125 -24.96875 Z M 14.078125 -23.453125 "/></g></g><g style="fill:#527ac6;fill-opacity:1;"><g transform="translate(136.973981, 76.835017)"><path style="stroke:none" d="M 2.96875 0 C 2.726562 0 2.609375 -0.117188 2.609375 -0.359375 L 2.609375 -24.96875 C 2.609375 -25.207031 2.726562 -25.328125 2.96875 -25.328125 L 4.8125 -25.328125 C 5.050781 -25.328125 5.171875 -25.207031 5.171875 -24.96875 L 5.171875 -13.25 C 5.171875 -13.175781 5.191406 -13.125 5.234375 -13.09375 C 5.285156 -13.070312 5.328125 -13.097656 5.359375 -13.171875 L 12.34375 -25.078125 C 12.457031 -25.242188 12.601562 -25.328125 12.78125 -25.328125 L 14.796875 -25.328125 C 14.941406 -25.328125 15.035156 -25.285156 15.078125 -25.203125 C 15.128906 -25.117188 15.117188 -25.015625 15.046875 -24.890625 L 9.40625 -15.09375 C 9.363281 -15 9.351562 -14.925781 9.375 -14.875 L 15.59375 -0.4375 L 15.640625 -0.296875 C 15.640625 -0.0976562 15.53125 0 15.3125 0 L 13.25 0 C 13.050781 0 12.914062 -0.0976562 12.84375 -0.296875 L 7.640625 -12.59375 C 7.609375 -12.6875 7.546875 -12.6875 7.453125 -12.59375 L 5.21875 -9.125 C 5.1875 -9.09375 5.171875 -9.03125 5.171875 -8.9375 L 5.171875 -0.359375 C 5.171875 -0.117188 5.050781 0 4.8125 0 Z M 2.96875 0 "/></g></g><g style="fill:#527ac6;fill-opacity:1;"><g transform="translate(153.33106, 76.835017)"><path style="stroke:none" d="M 13.71875 -25.328125 C 13.957031 -25.328125 14.078125 -25.207031 14.078125 -24.96875 L 14.078125 -23.453125 C 14.078125 -23.210938 13.957031 -23.09375 13.71875 -23.09375 L 8.9375 -23.09375 C 8.84375 -23.09375 8.796875 -23.039062 8.796875 -22.9375 L 8.796875 -0.359375 C 8.796875 -0.117188 8.675781 0 8.4375 0 L 6.59375 0 C 6.34375 0 6.21875 -0.117188 6.21875 -0.359375 L 6.21875 -22.9375 C 6.21875 -23.039062 6.171875 -23.09375 6.078125 -23.09375 L 1.59375 -23.09375 C 1.351562 -23.09375 1.234375 -23.210938 1.234375 -23.453125 L 1.234375 -24.96875 C 1.234375 -25.207031 1.351562 -25.328125 1.59375 -25.328125 Z M 13.71875 -25.328125 "/></g></g><g style="fill:#527ac6;fill-opacity:1;"><g transform="translate(168.638685, 76.835017)"><path style="stroke:none" d="M 12.734375 0 C 12.515625 0 12.367188 -0.0976562 12.296875 -0.296875 L 8.609375 -11.46875 C 8.585938 -11.539062 8.539062 -11.578125 8.46875 -11.578125 L 5.3125 -11.578125 C 5.21875 -11.578125 5.171875 -11.53125 5.171875 -11.4375 L 5.171875 -0.359375 C 5.171875 -0.117188 5.050781 0 4.8125 0 L 2.96875 0 C 2.726562 0 2.609375 -0.117188 2.609375 -0.359375 L 2.609375 -24.96875 C 2.609375 -25.207031 2.726562 -25.328125 2.96875 -25.328125 L 8.9375 -25.328125 C 10.695312 -25.328125 12.117188 -24.679688 13.203125 -23.390625 C 14.296875 -22.097656 14.84375 -20.414062 14.84375 -18.34375 C 14.84375 -16.78125 14.503906 -15.429688 13.828125 -14.296875 C 13.148438 -13.160156 12.234375 -12.363281 11.078125 -11.90625 C 10.972656 -11.882812 10.9375 -11.820312 10.96875 -11.71875 L 14.90625 -0.390625 L 14.953125 -0.25 C 14.953125 -0.0820312 14.84375 0 14.625 0 Z M 5.3125 -23.09375 C 5.21875 -23.09375 5.171875 -23.039062 5.171875 -22.9375 L 5.171875 -13.78125 C 5.171875 -13.6875 5.21875 -13.640625 5.3125 -13.640625 L 8.578125 -13.640625 C 9.679688 -13.640625 10.570312 -14.066406 11.25 -14.921875 C 11.925781 -15.785156 12.265625 -16.925781 12.265625 -18.34375 C 12.265625 -19.769531 11.925781 -20.914062 11.25 -21.78125 C 10.570312 -22.65625 9.679688 -23.09375 8.578125 -23.09375 Z M 5.3125 -23.09375 "/></g></g><g style="fill:#527ac6;fill-opacity:1;"><g transform="translate(184.670065, 76.835017)"><path style="stroke:none" d="M 2.96875 0 C 2.726562 0 2.609375 -0.117188 2.609375 -0.359375 L 2.609375 -24.96875 C 2.609375 -25.207031 2.726562 -25.328125 2.96875 -25.328125 L 4.8125 -25.328125 C 5.050781 -25.328125 5.171875 -25.207031 5.171875 -24.96875 L 5.171875 -0.359375 C 5.171875 -0.117188 5.050781 0 4.8125 0 Z M 3.90625 -28.65625 C 3.300781 -28.65625 2.8125 -28.847656 2.4375 -29.234375 C 2.0625 -29.617188 1.875 -30.101562 1.875 -30.6875 C 1.875 -31.289062 2.0625 -31.773438 2.4375 -32.140625 C 2.8125 -32.515625 3.300781 -32.703125 3.90625 -32.703125 C 4.488281 -32.703125 4.972656 -32.515625 5.359375 -32.140625 C 5.742188 -31.773438 5.9375 -31.289062 5.9375 -30.6875 C 5.9375 -30.101562 5.742188 -29.617188 5.359375 -29.234375 C 4.972656 -28.847656 4.488281 -28.65625 3.90625 -28.65625 Z M 3.90625 -28.65625 "/></g></g><g style="fill:#527ac6;fill-opacity:1;"><g transform="translate(192.450535, 76.835017)"><path style="stroke:none" d="M 2.96875 0 C 2.726562 0 2.609375 -0.117188 2.609375 -0.359375 L 2.609375 -24.96875 C 2.609375 -25.207031 2.726562 -25.328125 2.96875 -25.328125 L 4.8125 -25.328125 C 5.050781 -25.328125 5.171875 -25.207031 5.171875 -24.96875 L 5.171875 -13.25 C 5.171875 -13.175781 5.191406 -13.125 5.234375 -13.09375 C 5.285156 -13.070312 5.328125 -13.097656 5.359375 -13.171875 L 12.34375 -25.078125 C 12.457031 -25.242188 12.601562 -25.328125 12.78125 -25.328125 L 14.796875 -25.328125 C 14.941406 -25.328125 15.035156 -25.285156 15.078125 -25.203125 C 15.128906 -25.117188 15.117188 -25.015625 15.046875 -24.890625 L 9.40625 -15.09375 C 9.363281 -15 9.351562 -14.925781 9.375 -14.875 L 15.59375 -0.4375 L 15.640625 -0.296875 C 15.640625 -0.0976562 15.53125 0 15.3125 0 L 13.25 0 C 13.050781 0 12.914062 -0.0976562 12.84375 -0.296875 L 7.640625 -12.59375 C 7.609375 -12.6875 7.546875 -12.6875 7.453125 -12.59375 L 5.21875 -9.125 C 5.1875 -9.09375 5.171875 -9.03125 5.171875 -8.9375 L 5.171875 -0.359375 C 5.171875 -0.117188 5.050781 0 4.8125 0 Z M 2.96875 0 "/></g></g><g style="fill:#527ac6;fill-opacity:1;"><g transform="translate(208.481915, 76.835017)"><path style="stroke:none" d="M 14.328125 -18.78125 C 14.328125 -18.539062 14.207031 -18.421875 13.96875 -18.421875 L 12.09375 -18.3125 C 11.84375 -18.3125 11.71875 -18.429688 11.71875 -18.671875 L 11.71875 -19.578125 C 11.71875 -20.710938 11.390625 -21.628906 10.734375 -22.328125 C 10.085938 -23.023438 9.222656 -23.375 8.140625 -23.375 C 7.078125 -23.375 6.210938 -23.023438 5.546875 -22.328125 C 4.890625 -21.628906 4.5625 -20.710938 4.5625 -19.578125 L 4.5625 -5.75 C 4.5625 -4.613281 4.890625 -3.695312 5.546875 -3 C 6.210938 -2.300781 7.078125 -1.953125 8.140625 -1.953125 C 9.222656 -1.953125 10.085938 -2.300781 10.734375 -3 C 11.390625 -3.695312 11.71875 -4.613281 11.71875 -5.75 L 11.71875 -6.65625 C 11.71875 -6.894531 11.84375 -7.015625 12.09375 -7.015625 L 13.96875 -6.90625 C 14.207031 -6.90625 14.328125 -6.785156 14.328125 -6.546875 L 14.328125 -5.96875 C 14.328125 -4.28125 13.875 -2.882812 12.96875 -1.78125 C 12.0625 -0.6875 10.835938 -0.03125 9.296875 0.1875 C 9.179688 0.226562 9.160156 0.285156 9.234375 0.359375 C 10.222656 1.421875 10.71875 2.53125 10.71875 3.6875 C 10.71875 4.75 10.429688 5.507812 9.859375 5.96875 C 9.296875 6.425781 8.601562 6.65625 7.78125 6.65625 C 7.394531 6.65625 7.046875 6.617188 6.734375 6.546875 C 6.515625 6.503906 6.414062 6.375 6.4375 6.15625 L 6.546875 5.359375 C 6.597656 5.160156 6.71875 5.0625 6.90625 5.0625 C 6.9375 5.09375 6.988281 5.109375 7.0625 5.109375 C 7.519531 5.148438 7.910156 5.070312 8.234375 4.875 C 8.554688 4.6875 8.753906 4.335938 8.828125 3.828125 C 8.847656 3.734375 8.859375 3.59375 8.859375 3.40625 C 8.859375 2.382812 8.332031 1.347656 7.28125 0.296875 C 7.226562 0.242188 7.164062 0.21875 7.09375 0.21875 C 5.550781 0.0195312 4.3125 -0.628906 3.375 -1.734375 C 2.445312 -2.847656 1.984375 -4.257812 1.984375 -5.96875 L 1.984375 -19.390625 C 1.984375 -21.273438 2.546875 -22.785156 3.671875 -23.921875 C 4.796875 -25.054688 6.285156 -25.625 8.140625 -25.625 C 10.023438 -25.625 11.523438 -25.0625 12.640625 -23.9375 C 13.765625 -22.8125 14.328125 -21.296875 14.328125 -19.390625 Z M 14.328125 -18.78125 "/></g></g><g style="fill:#527ac6;fill-opacity:1;"><g transform="translate(224.62187, 76.835017)"><path style="stroke:none" d="M 2.96875 0 C 2.726562 0 2.609375 -0.117188 2.609375 -0.359375 L 2.609375 -24.96875 C 2.609375 -25.207031 2.726562 -25.328125 2.96875 -25.328125 L 4.8125 -25.328125 C 5.050781 -25.328125 5.171875 -25.207031 5.171875 -24.96875 L 5.171875 -0.359375 C 5.171875 -0.117188 5.050781 0 4.8125 0 Z M 3.90625 -28.65625 C 3.300781 -28.65625 2.8125 -28.847656 2.4375 -29.234375 C 2.0625 -29.617188 1.875 -30.101562 1.875 -30.6875 C 1.875 -31.289062 2.0625 -31.773438 2.4375 -32.140625 C 2.8125 -32.515625 3.300781 -32.703125 3.90625 -32.703125 C 4.488281 -32.703125 4.972656 -32.515625 5.359375 -32.140625 C 5.742188 -31.773438 5.9375 -31.289062 5.9375 -30.6875 C 5.9375 -30.101562 5.742188 -29.617188 5.359375 -29.234375 C 4.972656 -28.847656 4.488281 -28.65625 3.90625 -28.65625 Z M 3.90625 -28.65625 "/></g></g></g></svg>