<svg id="Layer_1" enable-background="new 0 0 2048 2048" viewBox="0 0 2048 2048" xmlns="http://www.w3.org/2000/svg" width="300" height="300" version="1.1" xmlns:xlink="http://www.w3.org/1999/xlink" xmlns:svgjs="http://svgjs.dev/svgjs"><g width="100%" height="100%" transform="matrix(1,0,0,1,0,0)"><g fill="rgb(0,0,0)"><path d="m857.877 1120h-531.754c-38.666 0-70.123 31.457-70.123 70.124v531.752c0 38.667 31.457 70.124 70.123 70.124h531.753c38.666 0 70.123-31.457 70.123-70.124v-531.752c.001-38.667-31.456-70.124-70.122-70.124z" fill="#ffffff" fill-opacity="1" data-original-color="#000000ff" stroke="none" stroke-opacity="1"/><circle cx="1456" cy="1456" r="336" fill="#ffffff" fill-opacity="1" data-original-color="#000000ff" stroke="none" stroke-opacity="1"/><path d="m857.877 256h-531.754c-38.666 0-70.123 31.457-70.123 70.123v531.753c0 38.667 31.457 70.124 70.123 70.124h531.753c38.667 0 70.124-31.457 70.124-70.123v-531.754c0-38.666-31.457-70.123-70.123-70.123z" fill="#ffffff" fill-opacity="1" data-original-color="#000000ff" stroke="none" stroke-opacity="1"/><path d="m1721.876 256h-531.752c-38.667 0-70.124 31.457-70.124 70.123v531.753c0 38.666 31.457 70.123 70.124 70.123h531.752c38.667 0 70.124-31.457 70.124-70.123v-531.753c0-38.666-31.457-70.123-70.124-70.123z" fill="#ffffff" fill-opacity="1" data-original-color="#000000ff" stroke="none" stroke-opacity="1"/></g></g></svg>