<svg fill="none" height="96" viewBox="0 0 96 96" width="96" xmlns="http://www.w3.org/2000/svg"><g clip-rule="evenodd" fill="rgb(0,0,0)" fill-rule="evenodd"><path d="m21.7555 12.0459h12.3169c1.4066 0 2.5886-.0001 3.5559.079 1.0113.0826 1.9724.262 2.8847.7269 1.3912.7088 2.5223 1.8399 3.2312 3.2312.4648.9123.6442 1.8734.7269 2.8847.079.9672.079 2.1492.0789 3.5559v12.3165c.0001 1.4066.0001 2.5887-.0789 3.5559-.0827 1.0113-.2621 1.9724-.7269 2.8847-.7089 1.3912-1.84 2.5223-3.2312 3.2312-.9123.4648-1.8734.6443-2.8847.7269-.9673.079-2.1493.079-3.556.079h-12.3168c-1.4066 0-2.5886 0-3.5559-.079-1.0113-.0826-1.9724-.2621-2.8847-.7269-1.3912-.7089-2.5223-1.84-3.2312-3.2312-.4648-.9123-.6443-1.8734-.7269-2.8847-.079-.9672-.079-2.1492-.079-3.5559v-12.3165c0-1.4067 0-2.5887.079-3.5559.0826-1.0113.2621-1.9724.7269-2.8847.7089-1.3913 1.84-2.5224 3.2312-3.2312.9123-.4649 1.8734-.6443 2.8847-.7269.9673-.0791 2.1492-.079 3.5559-.079zm-3.2119 4.2899c-.75.0613-1.0932.1697-1.3106.2805-.5962.3038-1.081.7885-1.3848 1.3848-.1108.2174-.2191.5606-.2804 1.3106-.0633.7747-.065 1.783-.065 3.2967v12.1469c0 1.5137.0017 2.522.065 3.2967.0613.75.1696 1.0932.2804 1.3106.3038.5963.7886 1.081 1.3848 1.3848.2174.1108.5606.2192 1.3106.2804.7747.0633 1.783.065 3.2967.065h12.1472c1.5138 0 2.522-.0017 3.2967-.065.75-.0612 1.0932-.1696 1.3107-.2804.5962-.3038 1.081-.7885 1.3848-1.3848.1107-.2174.2191-.5606.2804-1.3106.0633-.7747.0649-1.783.0649-3.2967v-12.1469c0-1.5137-.0016-2.522-.0649-3.2967-.0613-.75-.1697-1.0932-.2804-1.3106-.3038-.5963-.7886-1.081-1.3848-1.3848-.2175-.1108-.5607-.2192-1.3107-.2805-.7747-.0633-1.7829-.0649-3.2967-.0649h-12.1472c-1.5137 0-2.522.0016-3.2967.0649z"/><path d="m21.7555 51.6659h12.3169c1.4066-.0001 2.5886-.0001 3.5559.0789 1.0113.0826 1.9724.2621 2.8847.7269 1.3912.7089 2.5223 1.84 3.2312 3.2312.4648.9123.6442 1.8734.7269 2.8847.079.9673.079 2.1493.0789 3.556v12.3164c.0001 1.4067.0001 2.5887-.0789 3.556-.0827 1.0113-.2621 1.9724-.7269 2.8847-.7089 1.3912-1.84 2.5223-3.2312 3.2312-.9123.4648-1.8734.6442-2.8847.7269-.9673.079-2.1493.079-3.556.0789h-12.3168c-1.4066.0001-2.5886.0001-3.5559-.0789-1.0113-.0827-1.9724-.2621-2.8847-.7269-1.3912-.7089-2.5223-1.84-3.2312-3.2312-.4648-.9123-.6443-1.8734-.7269-2.8847-.079-.9673-.079-2.1493-.079-3.5559v-12.3166c0-1.4066 0-2.5886.079-3.5559.0826-1.0113.2621-1.9724.7269-2.8847.7089-1.3912 1.84-2.5223 3.2312-3.2312.9123-.4648 1.8734-.6443 2.8847-.7269.9673-.079 2.1492-.079 3.5559-.0789zm-3.2119 4.2899c-.75.0613-1.0932.1697-1.3106.2804-.5962.3038-1.081.7886-1.3848 1.3848-.1108.2174-.2191.5606-.2804 1.3107-.0633.7746-.065 1.7829-.065 3.2967v12.1468c0 1.5138.0017 2.522.065 3.2967.0613.75.1696 1.0932.2804 1.3107.3038.5962.7886 1.081 1.3848 1.3848.2174.1107.5606.2191 1.3106.2804.7747.0633 1.783.0649 3.2967.0649h12.1472c1.5138 0 2.522-.0016 3.2967-.0649.75-.0613 1.0932-.1697 1.3107-.2804.5962-.3038 1.081-.7886 1.3848-1.3848.1107-.2175.2191-.5607.2804-1.3107.0633-.7747.0649-1.7829.0649-3.2967v-12.1468c0-1.5138-.0016-2.5221-.0649-3.2967-.0613-.7501-.1697-1.0933-.2804-1.3107-.3038-.5962-.7886-1.081-1.3848-1.3848-.2175-.1107-.5607-.2191-1.3107-.2804-.7747-.0633-1.7829-.0649-3.2967-.0649h-12.1472c-1.5137 0-2.522.0016-3.2967.0649z"/><path d="m63.4176 12.0459h8.2121c2.3659-.0001 4.352-.0002 5.9315.2122 1.6724.2248 3.2016.722 4.4329 1.9534 1.2314 1.2313 1.7286 2.7605 1.9534 4.433.2124 1.5795.2123 3.5655.2122 5.9315v8.2117c.0001 2.366.0002 4.352-.2122 5.9315-.2248 1.6724-.722 3.2017-1.9534 4.433-1.2313 1.2313-2.7605 1.7285-4.4329 1.9534-1.5795.2123-3.5656.2123-5.9316.2122h-8.212c-2.3659.0001-4.352.0001-5.9315-.2122-1.6724-.2249-3.2016-.7221-4.433-1.9534-1.2313-1.2313-1.7285-2.7606-1.9534-4.433-.2123-1.5795-.2123-3.5655-.2122-5.9315v-8.2117c-.0001-2.366-.0001-4.3521.2122-5.9315.2249-1.6725.7221-3.2017 1.9534-4.433 1.2314-1.2314 2.7606-1.7286 4.433-1.9534 1.5795-.2124 3.5655-.2123 5.9315-.2122zm-5.3686 4.3995c-1.2039.1619-1.6929.4381-2.0084.7536s-.5917.8045-.7536 2.0084c-.17 1.2647-.1745 2.9642-.1745 5.5135v7.9219c0 2.5493.0045 4.2488.1745 5.5135.1619 1.2039.4381 1.6929.7536 2.0084s.8045.5917 2.0084.7536c1.2647.17 2.9642.1745 5.5135.1745h7.9222c2.5494 0 4.2488-.0045 5.5135-.1745 1.2039-.1619 1.6929-.4381 2.0084-.7536s.5918-.8045.7536-2.0084c.17-1.2647.1745-2.9642.1745-5.5135v-7.9219c0-2.5493-.0045-4.2488-.1745-5.5135-.1618-1.2039-.4381-1.6929-.7536-2.0084s-.8045-.5917-2.0084-.7536c-1.2647-.17-2.9641-.1745-5.5135-.1745h-7.9222c-2.5493 0-4.2488.0045-5.5135.1745z"/><path d="m67.5235 54.5733c-6.8544 0-12.411 5.5565-12.411 12.4109s5.5566 12.4109 12.411 12.4109c6.8543 0 12.4109-5.5565 12.4109-12.4109s-5.5566-12.4109-12.4109-12.4109zm-16.636 12.4109c0-9.1878 7.4482-16.6359 16.636-16.6359s16.6359 7.4481 16.6359 16.6359-7.4481 16.6359-16.6359 16.6359-16.636-7.4481-16.636-16.6359z"/></g></svg>